<?xml version="1.0" encoding="UTF-8" standalone="no"?>
<!-- Generator: Adobe Illustrator 27.5.0, SVG Export Plug-In . SVG Version: 6.00 Build 0)  -->

<svg
   version="1.1"
   x="0px"
   y="0px"
   viewBox="0 0 750 500"
   style="enable-background:new 0 0 750 500;"
   xml:space="preserve"
   id="svg94"
   sodipodi:docname="fondo2.svg"
   inkscape:version="1.3.2 (091e20e, 2023-11-25, custom)"
   xmlns:inkscape="http://www.inkscape.org/namespaces/inkscape"
   xmlns:sodipodi="http://sodipodi.sourceforge.net/DTD/sodipodi-0.dtd"
   xmlns:xlink="http://www.w3.org/1999/xlink"
   xmlns="http://www.w3.org/2000/svg"
   xmlns:svg="http://www.w3.org/2000/svg"><defs
   id="defs94"><linearGradient
     id="swatch97"><stop
       style="stop-color:#7bc9ef;stop-opacity:1;"
       offset="0"
       id="stop97" /></linearGradient><linearGradient
     id="swatch96"
     inkscape:swatch="solid"><stop
       style="stop-color:#6d42c8;stop-opacity:1;"
       offset="0"
       id="stop96" /></linearGradient><linearGradient
     id="swatch95"
     inkscape:swatch="solid"><stop
       style="stop-color:#6d42c8;stop-opacity:1;"
       offset="0"
       id="stop95" /></linearGradient><linearGradient
     id="swatch94"
     inkscape:swatch="solid"><stop
       style="stop-color:#c7afea;stop-opacity:1;"
       offset="0"
       id="stop94" /></linearGradient><linearGradient
     inkscape:collect="always"
     xlink:href="#swatch94"
     id="linearGradient94"
     x1="0"
     y1="250"
     x2="750"
     y2="250"
     gradientUnits="userSpaceOnUse" /><linearGradient
     inkscape:collect="always"
     xlink:href="#swatch95"
     id="linearGradient95"
     x1="537.082"
     y1="-9.7720003"
     x2="893.314"
     y2="-9.7720003"
     gradientUnits="userSpaceOnUse" /></defs><sodipodi:namedview
   id="namedview94"
   pagecolor="#ffffff"
   bordercolor="#000000"
   borderopacity="0.25"
   inkscape:showpageshadow="2"
   inkscape:pageopacity="0.0"
   inkscape:pagecheckerboard="0"
   inkscape:deskcolor="#d1d1d1"
   inkscape:zoom="1.1497556"
   inkscape:cx="354.42314"
   inkscape:cy="224.83038"
   inkscape:window-width="1920"
   inkscape:window-height="1009"
   inkscape:window-x="-8"
   inkscape:window-y="-8"
   inkscape:window-maximized="1"
   inkscape:current-layer="svg94" />
<g
   id="BACKGROUND">
	<rect
   style="fill:url(#linearGradient94);fill-opacity:1"
   width="750"
   height="500"
   id="rect1" />
	<g
   id="g5">
		<defs
   id="defs1">
			<rect
   id="SVGID_1_"
   width="750"
   height="500" />
		</defs>
		<clipPath
   id="SVGID_00000064311930201067823380000017303287990537088169_">
			<use
   xlink:href="#SVGID_1_"
   style="overflow:visible;"
   id="use1" />
		</clipPath>
		<g
   style="display:inline"
   clip-path="url(#SVGID_00000064311930201067823380000017303287990537088169_)"
   id="g4">
			<g
   style="opacity:0.3"
   id="g1">
				
					<circle
   transform="matrix(0.7071,-0.7071,0.7071,0.7071,-38.3093,88.9603)"
   style="fill:none;stroke:#6d42c8;stroke-width:2;stroke-linecap:round;stroke-linejoin:round;stroke-dasharray:12.1052, 12.1052;stroke-opacity:1"
   cx="88.230003"
   cy="90.723999"
   id="ellipse1"
   r="208.116" />
			</g>
			<circle
   style="opacity:0.3;fill:#6d42c8;stroke:none;stroke-opacity:1;fill-opacity:1"
   cx="88.230003"
   cy="90.723"
   r="178.116"
   id="circle1" />
			
				<circle
   style="opacity:0.3;fill:none;stroke:#6d42c8;stroke-width:2;stroke-linecap:round;stroke-linejoin:round;stroke-miterlimit:10;stroke-dasharray:12;stroke-opacity:1"
   cx="620.703"
   cy="470.20401"
   r="208.116"
   id="circle2" />
			<circle
   style="opacity:0.3;fill:#6d42c8;fill-opacity:1"
   cx="620.703"
   cy="470.20401"
   r="178.116"
   id="circle3" />
			
				<circle
   transform="matrix(0.7071,-0.7071,0.7071,0.7071,216.3862,502.8595)"
   style="display:inline;opacity:0.3;fill:none;fill-opacity:1;stroke:#6d42c8;stroke-width:2;stroke-linecap:round;stroke-linejoin:round;stroke-miterlimit:10;stroke-dasharray:12;stroke-opacity:1"
   cx="715.198"
   cy="-9.7709999"
   id="ellipse3"
   r="208.116" />
			<circle
   style="opacity:0.3;fill:url(#linearGradient95);fill-opacity:1"
   cx="715.198"
   cy="-9.7720003"
   r="178.116"
   id="circle4" />
		</g>
	</g>
</g>
<g
   id="OBJECTS">
	<g
   id="g88">
		<defs
   id="defs5">
			<rect
   id="SVGID_00000036209066341125170430000004027181974309612707_"
   width="750"
   height="500" />
		</defs>
		<clipPath
   id="SVGID_00000124160852899940836610000007583772866342364321_">
			<use
   xlink:href="#SVGID_00000036209066341125170430000004027181974309612707_"
   style="overflow:visible;"
   id="use5" />
		</clipPath>
		<g
   style="clip-path:url(#SVGID_00000124160852899940836610000007583772866342364321_);"
   clip-path="url(#SVGID_00000124160852899940836610000007583772866342364321_)"
   id="g87">
			<g
   id="g10">
				<path
   style="fill:#FDCE64;"
   d="M168.569,324.387c-3.653-5.189-10.821-6.433-16.009-2.78l-6.149,4.33      c-5.188,3.653-6.433,10.821-2.78,16.009l53.752,76.343l21.697,10.406l4.544,6.454c1.113,1.581,3.296,1.96,4.877,0.847l0,0      c1.581-1.113,1.96-3.296,0.847-4.877l-4.544-6.454l-2.482-23.935L168.569,324.387z"
   id="path5" />
				<path
   style="fill:#EF7F7E;"
   d="M152.56,321.607l-6.149,4.33c-5.188,3.653-6.433,10.821-2.78,16.009l4.324,6.141l24.938-17.559      l-4.324-6.141C164.916,319.199,157.749,317.954,152.56,321.607z"
   id="path6" />
				<path
   style="fill:none;stroke:#FBFFFF;stroke-width:2;stroke-linecap:round;stroke-linejoin:round;stroke-miterlimit:10;"
   d="      M155.439,325.696c2.926-2.06,6.982-1.356,9.042,1.57"
   id="path7" />
				<path
   style="fill:#070000;"
   d="M223.624,435.149c1.113,1.581,3.296,1.96,4.877,0.847c1.58-1.113,1.96-3.296,0.847-4.877      l-4.544-6.454l-5.724,4.03L223.624,435.149z"
   id="path8" />
				<polygon
   style="fill:#F8B193;"
   points="197.383,418.289 200.924,409.856 211.518,411.875 213.56,402.182 222.322,400.73       224.804,424.665 219.08,428.695     "
   id="polygon8" />
				
					<rect
   x="146.594"
   y="338.145"
   transform="matrix(0.8177 -0.5757 0.5757 0.8177 -168.4204 157.2899)"
   style="fill:#7BC9EF;"
   width="35"
   height="12.75"
   id="rect8" />
				
					<line
   style="fill:none;stroke:#070000;stroke-width:2;stroke-linecap:round;stroke-linejoin:round;stroke-miterlimit:10;"
   x1="149.785"
   y1="354.595"
   x2="178.403"
   y2="334.445"
   id="line8" />
				<polygon
   style="fill:#070000;"
   points="155.295,358.512 180.233,340.953 159.037,363.827     "
   id="polygon9" />
				
					<line
   style="fill:none;stroke:#070000;stroke-width:2;stroke-linecap:round;stroke-linejoin:round;stroke-miterlimit:10;"
   x1="200.924"
   y1="409.856"
   x2="163.503"
   y2="356.708"
   id="line9" />
				
					<line
   style="fill:none;stroke:#070000;stroke-width:2;stroke-linecap:round;stroke-linejoin:round;stroke-miterlimit:10;"
   x1="213.56"
   y1="402.182"
   x2="174.268"
   y2="346.377"
   id="line10" />
			</g>
			<g
   id="g14">
				<path
   style="fill:#46B17B;"
   d="M666.32,178.275l-12.846,6.168l-6.846-14.257c-0.614-1.279-0.248-2.813,0.877-3.677l6.685-5.137      c1.511-1.161,3.707-0.637,4.532,1.08L666.32,178.275z"
   id="path10" />
				<path
   style="fill:#C1D57E;"
   d="M672.402,184.876l-17.578,8.441l-15.879,18.718l43.441,82.092      c2.512,4.747,8.326,6.662,13.167,4.337l33.443-16.059c4.842-2.325,6.982-8.059,4.848-12.988l-36.906-85.23L672.402,184.876z"
   id="path11" />
				<path
   style="fill:#070000;"
   d="M638.944,212.035l57.994-27.848l-19.996,0.561c-2.762,0.077-5.311-1.477-6.507-3.967      l-4.996-10.404l-17.578,8.441l4.996,10.404c1.196,2.49,0.815,5.451-0.972,7.558L638.944,212.035z"
   id="path12" />
				
					<line
   style="fill:none;stroke:#070000;stroke-width:2;stroke-linecap:round;stroke-linejoin:round;stroke-miterlimit:10;"
   x1="682.385"
   y1="294.128"
   x2="733.844"
   y2="269.418"
   id="line12" />
				
					<ellipse
   transform="matrix(0.0437 -0.999 0.999 0.0437 418.8467 915.2247)"
   style="fill:#FBFFFF;"
   cx="687.493"
   cy="238.827"
   rx="15.181"
   ry="15.181"
   id="ellipse12" />
				
					<line
   style="fill:none;stroke:#FBFFFF;stroke-width:2;stroke-linecap:round;stroke-linejoin:round;stroke-miterlimit:10;"
   x1="663.352"
   y1="176.65"
   x2="667.68"
   y2="185.664"
   id="line13" />
				
					<line
   style="fill:none;stroke:#FBFFFF;stroke-width:2;stroke-linecap:round;stroke-linejoin:round;stroke-miterlimit:10;"
   x1="654.257"
   y1="204.683"
   x2="696.938"
   y2="184.187"
   id="line14" />
			</g>
			<g
   id="g26">
				<g
   id="g19">
					<path
   style="fill:#EF7F7E;"
   d="M58.128-8.527l4.304-21.431c0.679-3.712-1.371-7.384-4.888-8.753l0,0       c-3.516-1.37-7.51-0.052-9.521,3.141L36.696-16.875l-4.892-1.906L-6.55,79.679l31.215,12.16L63.02-6.622L58.128-8.527z"
   id="path14" />
					<path
   style="fill:none;stroke:#FBFFFF;stroke-width:2;stroke-linecap:round;stroke-linejoin:round;stroke-miterlimit:10;"
   d="       M55.729-34.052c1.281,0.499,2.031,1.842,1.784,3.195l-1.267,6.307"
   id="path15" />
					
						<rect
   x="11.667"
   y="-5.271"
   transform="matrix(0.9318 0.363 -0.363 0.9318 15.028 -7.855)"
   style="fill:#F8B193;"
   width="33.5"
   height="82.667"
   id="rect15" />
					
						<line
   style="fill:none;stroke:#070000;stroke-width:2;stroke-miterlimit:10;"
   x1="27.812"
   y1="-8.531"
   x2="59.027"
   y2="3.628"
   id="line15" />
					
						<line
   style="fill:none;stroke:#070000;stroke-width:2;stroke-miterlimit:10;"
   x1="55.659"
   y1="12.275"
   x2="24.444"
   y2="0.116"
   id="line16" />
					<line
   style="fill:none;stroke:#070000;stroke-width:2;stroke-miterlimit:10;"
   x1="0.937"
   y1="60.461"
   x2="32.152"
   y2="72.62"
   id="line17" />
					
						<line
   style="fill:none;stroke:#070000;stroke-width:2;stroke-miterlimit:10;"
   x1="28.783"
   y1="81.267"
   x2="-2.432"
   y2="69.107"
   id="line18" />
					
						<line
   style="fill:none;stroke:#070000;stroke-width:2;stroke-linecap:round;stroke-linejoin:round;stroke-miterlimit:10;"
   x1="36.696"
   y1="-16.875"
   x2="58.128"
   y2="-8.527"
   id="line19" />
					
						<ellipse
   transform="matrix(0.363 -0.9318 0.9318 0.363 -14.3353 49.1804)"
   style="fill:#FBFFFF;"
   cx="28.801"
   cy="35.075"
   rx="17.34"
   ry="9.333"
   id="ellipse19" />
					<path
   style="fill:#070000;"
   d="M3.363,83.54c0,0,15.026-7.082,33.731-23.609L24.665,91.839L3.363,83.54z"
   id="path19" />
				</g>
				<g
   id="g25">
					<path
   style="fill:#5B6CB1;"
   d="M85.837,49.599l12.432-17.98c2.092-3.141,1.662-7.324-1.026-9.973l0,0       c-2.687-2.649-6.876-3.019-9.987-0.882L69.457,33.452l-3.739-3.686l-74.179,75.252l23.858,23.517l74.179-75.252L85.837,49.599z       "
   id="path20" />
					<path
   style="fill:none;stroke:#FBFFFF;stroke-width:2;stroke-linecap:round;stroke-linejoin:round;stroke-miterlimit:10;"
   d="       M93.732,25.207c0.979,0.965,1.137,2.496,0.374,3.64l-3.659,5.292"
   id="path21" />
					
						<rect
   x="24.158"
   y="37.462"
   transform="matrix(0.7122 0.702 -0.702 0.7122 67.0902 -6.0379)"
   style="fill:#7BC9EF;"
   width="33.5"
   height="82.667"
   id="rect21" />
					
						<line
   style="fill:none;stroke:#070000;stroke-width:2;stroke-miterlimit:10;"
   x1="57.996"
   y1="37.601"
   x2="81.853"
   y2="61.118"
   id="line21" />
					
						<line
   style="fill:none;stroke:#070000;stroke-width:2;stroke-miterlimit:10;"
   x1="75.339"
   y1="67.727"
   x2="51.481"
   y2="44.209"
   id="line22" />
					
						<line
   style="fill:none;stroke:#070000;stroke-width:2;stroke-miterlimit:10;"
   x1="6.018"
   y1="90.33"
   x2="29.875"
   y2="113.848"
   id="line23" />
					
						<line
   style="fill:none;stroke:#070000;stroke-width:2;stroke-miterlimit:10;"
   x1="23.361"
   y1="120.457"
   x2="-0.497"
   y2="96.939"
   id="line24" />
					
						<line
   style="fill:none;stroke:#070000;stroke-width:2;stroke-linecap:round;stroke-linejoin:round;stroke-miterlimit:10;"
   x1="69.457"
   y1="33.452"
   x2="85.837"
   y2="49.599"
   id="line25" />
					<path
   style="fill:#FBFFFF;"
   d="M48.299,84.592c-6.723,6.82-15.149,9.416-18.82,5.797c-3.671-3.619-1.197-12.081,5.526-18.901       c6.723-6.82,15.149-9.416,18.82-5.797C57.497,69.31,55.022,77.772,48.299,84.592z"
   id="path25" />
				</g>
			</g>
			<g
   id="g35">
				<path
   style="fill:#070000;"
   d="M179.301,93.299c0,0,4.831,2.346,5.378,14.927c0.346,7.965,9.108,9.052,9.108,9.052      s-11.9,8.274-26.806,0.092c-14.906-8.182-8.053-28.987-8.053-28.987L179.301,93.299z"
   id="path26" />
				<path
   style="fill:#EF7F7E;"
   d="M164.691,101.72c-11.411-0.101-19.078,3.683-24.182,8.287c-2.889-0.681-5.999-0.57-9,0.511      c-3.001,1.081-5.467,2.98-7.258,5.347c-6.868-0.291-15.186,1.685-23.91,9.041c-23.49,19.807,5.138,76.211,43.333,77.982      c0,0,8.63,0.933,13.82-5.246c2.329-2.773,6.008-4.098,9.571-3.448c7.938,1.448,13.99-4.775,13.99-4.775      C209.342,163.694,195.416,101.993,164.691,101.72z"
   id="path27" />
				<path
   style="fill:none;stroke:#FBFFFF;stroke-width:2;stroke-linecap:round;stroke-linejoin:round;stroke-miterlimit:10;"
   d="      M102.538,147.383c-0.316-5.015,0.707-10.536,4.893-14.066"
   id="path28" />
				<path
   style="fill:none;stroke:#FBFFFF;stroke-width:2;stroke-linecap:round;stroke-linejoin:round;stroke-miterlimit:10;"
   d="      M105.013,157.319c-0.489-0.952-1.001-2.273-1.435-3.827"
   id="path29" />
				<path
   style="fill:none;stroke:#070000;stroke-width:2;stroke-linecap:round;stroke-linejoin:round;stroke-miterlimit:10;"
   d="      M127.764,127.887c0.668-3.69,3.231-6.934,7.013-8.297c3.529-1.271,7.285-0.605,10.102,1.453"
   id="path30" />
				<path
   style="fill:none;stroke:#070000;stroke-width:2;stroke-linecap:round;stroke-linejoin:round;stroke-miterlimit:10;"
   d="      M119.547,122.192c3.529-1.271,7.284-0.605,10.102,1.453"
   id="path31" />
				<path
   style="fill:none;stroke:#070000;stroke-width:2;stroke-linecap:round;stroke-linejoin:round;stroke-miterlimit:10;"
   d="      M148.583,111.73c-3.529,1.271-5.996,4.18-6.853,7.562"
   id="path32" />
				<path
   style="fill:#46B17B;"
   d="M133.391,114.858c0,0-0.694-26.435,17.088-29.276c14.574-2.328,28.822,7.716,28.822,7.716      S170.812,89.652,133.391,114.858z"
   id="path33" />
				<path
   style="fill:none;stroke:#070000;stroke-width:2;stroke-linecap:round;stroke-linejoin:round;stroke-miterlimit:10;"
   d="      M133.391,114.858c0,0,17.283-26.753,31.694-28.127"
   id="path34" />
				<path
   style="fill:none;stroke:#070000;stroke-width:2;stroke-linecap:round;stroke-linejoin:round;stroke-miterlimit:10;"
   d="      M134.777,119.59c0,0-3.863-14.557-17.303-29.733"
   id="path35" />
			</g>
			<g
   id="g45">
				<path
   style="fill:#FDCE64;"
   d="M91.28,348.678l-192.025-103.181c-8.353-4.489-6.351-16.998,2.986-18.655l178.42-31.671      c5.729-1.017,11.113,3.053,11.697,8.842l13.605,134.853C106.767,346.837,98.338,352.47,91.28,348.678z M-25.692,251.768      l91.401,49.113c2.823,1.517,6.195-0.736,5.873-3.925l-6.476-64.188c-0.234-2.316-2.387-3.944-4.679-3.537l-84.925,15.075      C-28.232,244.969-29.033,249.973-25.692,251.768z"
   id="path36" />
				
					<line
   style="fill:none;stroke:#070000;stroke-width:2;stroke-linecap:round;stroke-linejoin:round;stroke-miterlimit:10;"
   x1="-76.673"
   y1="241.439"
   x2="-83.758"
   y2="254.624"
   id="line36" />
				
					<line
   style="fill:none;stroke:#070000;stroke-width:2;stroke-linecap:round;stroke-linejoin:round;stroke-miterlimit:10;"
   x1="-57.162"
   y1="247.382"
   x2="-66.14"
   y2="264.09"
   id="line37" />
				
					<line
   style="fill:none;stroke:#070000;stroke-width:2;stroke-linecap:round;stroke-linejoin:round;stroke-miterlimit:10;"
   x1="-41.438"
   y1="260.372"
   x2="-48.522"
   y2="273.557"
   id="line38" />
				
					<line
   style="fill:none;stroke:#070000;stroke-width:2;stroke-linecap:round;stroke-linejoin:round;stroke-miterlimit:10;"
   x1="-21.927"
   y1="266.315"
   x2="-30.905"
   y2="283.024"
   id="line39" />
				
					<line
   style="fill:none;stroke:#070000;stroke-width:2;stroke-linecap:round;stroke-linejoin:round;stroke-miterlimit:10;"
   x1="-6.202"
   y1="279.305"
   x2="-13.287"
   y2="292.49"
   id="line40" />
				
					<line
   style="fill:none;stroke:#070000;stroke-width:2;stroke-linecap:round;stroke-linejoin:round;stroke-miterlimit:10;"
   x1="13.309"
   y1="285.248"
   x2="4.331"
   y2="301.957"
   id="line41" />
				
					<line
   style="fill:none;stroke:#070000;stroke-width:2;stroke-linecap:round;stroke-linejoin:round;stroke-miterlimit:10;"
   x1="29.033"
   y1="298.239"
   x2="21.948"
   y2="311.423"
   id="line42" />
				
					<line
   style="fill:none;stroke:#070000;stroke-width:2;stroke-linecap:round;stroke-linejoin:round;stroke-miterlimit:10;"
   x1="48.544"
   y1="304.182"
   x2="39.566"
   y2="320.89"
   id="line43" />
				
					<line
   style="fill:none;stroke:#070000;stroke-width:2;stroke-linecap:round;stroke-linejoin:round;stroke-miterlimit:10;"
   x1="64.269"
   y1="317.172"
   x2="57.184"
   y2="330.357"
   id="line44" />
				
					<line
   style="fill:none;stroke:#070000;stroke-width:2;stroke-linecap:round;stroke-linejoin:round;stroke-miterlimit:10;"
   x1="83.78"
   y1="323.115"
   x2="74.802"
   y2="339.823"
   id="line45" />
			</g>
			<g
   id="g51">
				<path
   style="fill:#FDCE64;"
   d="M354.452,434.924c-10.005-21.08-35.204-30.059-56.285-20.054      c-21.08,10.005-30.059,35.204-20.054,56.285c7.057,14.869,21.675,23.705,37.074,24.117l4.299,9.057l34.505-16.376l-4.298-9.057      C359.111,466.705,361.509,449.793,354.452,434.924z"
   id="path45" />
				<path
   style="fill:none;stroke:#FBFFFF;stroke-width:2;stroke-linecap:round;stroke-linejoin:round;stroke-miterlimit:10;"
   d="      M328.459,424.274c1.946,0.823,3.812,1.842,5.563,3.046"
   id="path46" />
				<path
   style="fill:none;stroke:#FBFFFF;stroke-width:2;stroke-linecap:round;stroke-linejoin:round;stroke-miterlimit:10;"
   d="      M302.884,424.807c6.182-2.934,12.854-3.654,19.115-2.48"
   id="path47" />
				
					<rect
   x="317.549"
   y="495.054"
   transform="matrix(0.9034 -0.4288 0.4288 0.9034 -184.0955 195.3501)"
   style="fill:#7BC9EF;"
   width="48.028"
   height="22.5"
   id="rect47" />
				
					<line
   style="fill:none;stroke:#070000;stroke-width:2;stroke-linecap:round;stroke-linejoin:round;stroke-miterlimit:10;"
   x1="319.896"
   y1="516.587"
   x2="363.257"
   y2="496.008"
   id="line47" />
				<path
   style="fill:#5B6CB1;"
   d="M361.765,527.986l-15.6,7.404c-5.381,2.554-11.813,0.262-14.367-5.119l-2.665-5.615      l35.086-16.652l2.665,5.615C369.438,519,367.146,525.432,361.765,527.986z"
   id="path48" />
				<path
   style="fill:#070000;"
   d="M340.705,519.164l23.514-11.16l2.665,5.615C366.884,513.619,356.033,513.365,340.705,519.164z"
   id="path49" />
				<path
   style="fill:none;stroke:#070000;stroke-width:2;stroke-linecap:round;stroke-linejoin:round;stroke-miterlimit:10;"
   d="      M329.251,499.694"
   id="path50" />
				<path
   style="fill:none;stroke:#070000;stroke-width:2;stroke-linecap:round;stroke-linejoin:round;stroke-miterlimit:10;"
   d="      M343.857,492.763l-11.72-24.693c-1.145-2.412-0.117-5.294,2.294-6.439c2.412-1.145,5.294-0.117,6.439,2.294      c1.145,2.411,0.117,5.294-2.294,6.439l-23.188,11.005c-2.411,1.145-5.294,0.117-6.439-2.294      c-1.145-2.412-0.117-5.294,2.294-6.439c2.412-1.145,5.294-0.117,6.439,2.294l11.72,24.693"
   id="path51" />
			</g>
			<g
   id="g59">
				<path
   style="fill:#7BC9EF;"
   d="M342.257-22.513L225.091,84.231c-1.633,1.488-4.163,1.37-5.651-0.263l-20.07-22.029      c-1.488-1.633-1.37-4.163,0.263-5.651L316.799-50.456c1.633-1.488,4.163-1.37,5.651,0.263l20.07,22.029      C344.008-26.531,343.89-24.001,342.257-22.513z"
   id="path52" />
				
					<line
   style="fill:none;stroke:#070000;stroke-width:2;stroke-linecap:round;stroke-linejoin:round;stroke-miterlimit:10;"
   x1="209.405"
   y1="72.954"
   x2="333.127"
   y2="-39.763"
   id="line52" />
				
					<line
   style="fill:none;stroke:#070000;stroke-width:2;stroke-linecap:round;stroke-linejoin:round;stroke-miterlimit:10;"
   x1="309.18"
   y1="-30.121"
   x2="302.467"
   y2="-37.489"
   id="line53" />
				
					<line
   style="fill:none;stroke:#070000;stroke-width:2;stroke-linecap:round;stroke-linejoin:round;stroke-miterlimit:10;"
   x1="297.089"
   y1="-13.695"
   x2="287.682"
   y2="-24.02"
   id="line54" />
				
					<line
   style="fill:none;stroke:#070000;stroke-width:2;stroke-linecap:round;stroke-linejoin:round;stroke-miterlimit:10;"
   x1="279.611"
   y1="-3.182"
   x2="272.898"
   y2="-10.551"
   id="line55" />
				
					<line
   style="fill:none;stroke:#070000;stroke-width:2;stroke-linecap:round;stroke-linejoin:round;stroke-miterlimit:10;"
   x1="267.52"
   y1="13.244"
   x2="258.114"
   y2="2.918"
   id="line56" />
				
					<line
   style="fill:none;stroke:#070000;stroke-width:2;stroke-linecap:round;stroke-linejoin:round;stroke-miterlimit:10;"
   x1="250.042"
   y1="23.756"
   x2="243.329"
   y2="16.388"
   id="line57" />
				
					<line
   style="fill:none;stroke:#070000;stroke-width:2;stroke-linecap:round;stroke-linejoin:round;stroke-miterlimit:10;"
   x1="237.952"
   y1="40.182"
   x2="228.545"
   y2="29.857"
   id="line58" />
				
					<line
   style="fill:none;stroke:#070000;stroke-width:2;stroke-linecap:round;stroke-linejoin:round;stroke-miterlimit:10;"
   x1="220.473"
   y1="50.695"
   x2="213.76"
   y2="43.326"
   id="line59" />
			</g>
			<g
   id="g67">
				
					<rect
   x="629.134"
   y="18.831"
   transform="matrix(0.9486 0.3165 -0.3165 0.9486 42.0463 -200.858)"
   style="fill:#EF7F7E;"
   width="20.333"
   height="20.333"
   id="rect59" />
				
					<rect
   x="622.009"
   y="40.313"
   transform="matrix(0.9486 0.3165 -0.3165 0.9486 48.5201 -197.7491)"
   style="fill:#5B6CB1;"
   width="21.921"
   height="20.333"
   id="rect60" />
				
					<rect
   x="614.868"
   y="61.893"
   transform="matrix(0.9486 0.3165 -0.3165 0.9486 55.0395 -194.7272)"
   style="fill:#46B17B;"
   width="24.122"
   height="20.333"
   id="rect61" />
				<path
   style="fill:#C1D57E;"
   d="M600.198,142.853l-99.707-33.269c-8.906-2.972-13.717-12.601-10.745-21.507l34.639-103.812      c2.972-8.906,12.601-13.717,21.507-10.745l99.707,33.269L600.198,142.853z"
   id="path61" />
				<path
   style="fill:none;stroke:#070000;stroke-width:2;stroke-linecap:round;stroke-linejoin:round;stroke-miterlimit:10;"
   d="      M490.201,86.713c2.972-8.906,12.601-13.717,21.507-10.745l99.707,33.269"
   id="path62" />
				<path
   style="fill:#FBFFFF;"
   d="M502.073,104.841c-6.276-2.094-9.679-8.904-7.585-15.181l0.455-1.365      c2.094-6.277,8.905-9.679,15.181-7.585l99.707,33.269l-8.052,24.131L502.073,104.841z"
   id="path63" />
				
					<line
   style="fill:none;stroke:#070000;stroke-width:2;stroke-linecap:round;stroke-linejoin:round;stroke-miterlimit:10;"
   x1="544.482"
   y1="-26.596"
   x2="510.405"
   y2="75.533"
   id="line63" />
				
					<line
   style="fill:none;stroke:#070000;stroke-width:2;stroke-linecap:round;stroke-linejoin:round;stroke-miterlimit:10;"
   x1="494.716"
   y1="88.977"
   x2="605.806"
   y2="126.045"
   id="line64" />
				
					<line
   style="fill:none;stroke:#070000;stroke-width:2;stroke-linecap:round;stroke-linejoin:round;stroke-miterlimit:10;"
   x1="494.018"
   y1="95.295"
   x2="557.253"
   y2="116.395"
   id="line65" />
				<polygon
   style="fill:#EF7F7E;"
   points="577.18,144.085 569.171,137.548 558.841,137.966 569.092,107.243 587.431,113.363           "
   id="polygon65" />
				
					<line
   style="fill:none;stroke:#070000;stroke-width:2;stroke-linecap:round;stroke-linejoin:round;stroke-miterlimit:10;"
   x1="549.172"
   y1="100.596"
   x2="607.773"
   y2="120.15"
   id="line66" />
				
					<line
   style="fill:none;stroke:#070000;stroke-width:2;stroke-linecap:round;stroke-linejoin:round;stroke-miterlimit:10;"
   x1="497.948"
   y1="83.505"
   x2="528.303"
   y2="93.633"
   id="line67" />
				
					<text
   transform="matrix(0.9486 0.3165 -0.3165 0.9486 547.0106 25.1314)"
   style="fill:#FBFFFF; font-family:'Chewy-Regular'; font-size:35px;"
   id="text67">1 2 3</text>
				<path
   style="fill:#FBFFFF;"
   d="M591.431,76.101l-45.532-15.193c-2.096-0.699-3.227-2.965-2.528-5.06l4.115-12.332      c0.699-2.096,2.965-3.228,5.06-2.528l45.532,15.193c2.096,0.699,3.227,2.965,2.528,5.06l-4.115,12.332      C595.792,75.668,593.526,76.8,591.431,76.101z"
   id="path67" />
			</g>
			<g
   id="g71">
				
					<ellipse
   transform="matrix(0.7071 -0.7071 0.7071 0.7071 -319.6925 175.407)"
   style="fill:#EF7F7E;"
   cx="51.889"
   cy="473.607"
   rx="66.087"
   ry="66.087"
   id="ellipse67" />
				<path
   style="fill:none;stroke:#070000;stroke-width:2;stroke-linecap:round;stroke-linejoin:round;stroke-miterlimit:10;"
   d="      M-2.996,436.784c27.059-5.615,54.008,7.264,62.909,31.456c9.415,25.59-4.753,54.628-31.843,66.882"
   id="path68" />
				<path
   style="fill:none;stroke:#070000;stroke-width:2;stroke-linecap:round;stroke-linejoin:round;stroke-miterlimit:10;"
   d="      M117.441,482.067c-11.278-5.536-20.28-14.823-24.744-26.954c-4.06-11.034-3.735-22.708,0.12-33.402"
   id="path69" />
				<path
   style="fill:none;stroke:#070000;stroke-width:2;stroke-linecap:round;stroke-linejoin:round;stroke-miterlimit:10;"
   d="      M112.905,447.957c-18.481,12.174-41.665,22.667-67.699,29.816c-20.472,5.622-40.485,8.568-58.851,9.07"
   id="path70" />
				<path
   style="fill:none;stroke:#070000;stroke-width:2;stroke-linecap:round;stroke-linejoin:round;stroke-miterlimit:10;"
   d="      M44.129,407.964c0,0,23.126,17.449,36.463,57.352c14.258,42.66,5.672,64.743,5.672,64.743"
   id="path71" />
			</g>
			<g
   id="g73">
				<polygon
   style="fill:#7BC9EF;"
   points="404.41,67.319 429.063,81.743 448.896,18.064 350.321,35.671 376.669,51.087       380.926,82.895     "
   id="polygon71" />
				<polygon
   style="fill:#5B6CB1;"
   points="376.669,51.087 448.896,18.064 397.302,63.146 380.926,82.895     "
   id="polygon72" />
				<polygon
   style="fill:#070000;"
   points="404.41,67.319 397.302,63.146 380.926,82.895     "
   id="polygon73" />
			</g>
			<g
   id="g75">
				<path
   style="fill:#FDCE64;"
   d="M747.075,140.023l17.262-51.517l-65.878-22.074c-8.39-2.811-17.471,1.711-20.283,10.102      l-7.081,21.132c-2.811,8.39,1.711,17.471,10.102,20.283L747.075,140.023z"
   id="path73" />
				<path
   style="fill:none;stroke:#070000;stroke-width:2;stroke-linecap:round;stroke-linejoin:round;stroke-miterlimit:10;"
   d="      M674.404,87.792c-2.811,8.39,1.711,17.471,10.102,20.283l65.878,22.074"
   id="path74" />
				
					<rect
   x="692.136"
   y="78.107"
   transform="matrix(-0.3177 0.9482 -0.9482 -0.3177 1049.6056 -548.4786)"
   style="fill:#7BC9EF;"
   width="60"
   height="50.569"
   id="rect74" />
				
					<rect
   x="706.805"
   y="98.493"
   transform="matrix(0.3177 -0.9482 0.9482 0.3177 370.6768 762.6936)"
   style="fill:#5B6CB1;"
   width="17"
   height="50.569"
   id="rect75" />
			</g>
			<g
   id="g78">
				<g
   id="g76">
					<polygon
   style="fill:#EF7F7E;"
   points="695.291,423.463 673.2,443.579 675.689,511.596 743.706,509.107 765.797,488.991        763.308,420.974      "
   id="polygon75" />
					
						<rect
   x="674.422"
   y="442.312"
   transform="matrix(0.9993 -0.0366 0.0366 0.9993 -16.9437 26.2231)"
   style="fill:#F8B193;"
   width="68.062"
   height="68.062"
   id="rect76" />
					
						<text
   transform="matrix(0.9993 -0.0366 0.0366 0.9993 694.4872 491.1969)"
   style="fill:#FBFFFF; font-family:'Chewy-Regular'; font-size:50px;"
   id="text76">B</text>
					
						<polyline
   style="fill:none;stroke:#070000;stroke-width:2;stroke-linecap:round;stroke-linejoin:round;stroke-miterlimit:10;"
   points="       763.308,420.974 741.217,441.09 743.706,509.107      "
   id="polyline76" />
				</g>
				<polygon
   style="fill:#070000;"
   points="726.095,438.037 757.271,421.195 695.291,423.463 677.327,439.821     "
   id="polygon76" />
				<g
   id="g77">
					<polygon
   style="fill:#5B6CB1;"
   points="677.681,352.393 655.589,372.509 658.078,440.526 726.095,438.037 748.187,417.921        745.698,349.904      "
   id="polygon77" />
					
						<rect
   x="656.811"
   y="371.242"
   transform="matrix(0.9993 -0.0366 0.0366 0.9993 -14.3568 25.5316)"
   style="fill:#7BC9EF;"
   width="68.062"
   height="68.062"
   id="rect77" />
					
						<text
   transform="matrix(0.9993 -0.0366 0.0366 0.9993 675.1279 420.1907)"
   style="fill:#FBFFFF; font-family:'Chewy-Regular'; font-size:50px;"
   id="text77">A</text>
					
						<polyline
   style="fill:none;stroke:#070000;stroke-width:2;stroke-linecap:round;stroke-linejoin:round;stroke-miterlimit:10;"
   points="       745.698,349.904 723.606,370.02 726.095,438.037      "
   id="polyline77" />
				</g>
				
					<line
   style="fill:none;stroke:#FBFFFF;stroke-width:2;stroke-linecap:round;stroke-linejoin:round;stroke-miterlimit:10;"
   x1="655.589"
   y1="372.509"
   x2="723.606"
   y2="370.02"
   id="line77" />
				
					<line
   style="fill:none;stroke:#FBFFFF;stroke-width:2;stroke-linecap:round;stroke-linejoin:round;stroke-miterlimit:10;"
   x1="673.2"
   y1="443.579"
   x2="741.217"
   y2="441.09"
   id="line78" />
			</g>
			<g
   id="g86">
				<path
   style="fill:#7BC9EF;"
   d="M544.316,409.334l5.506-25.099l4.299,0.943l2.572-11.721l-36.792-8.072l-2.571,11.721l4.3,0.943      l-5.506,25.099c-21.813,1.579-40.916,17.252-45.841,39.703c-6,27.35,11.307,54.387,38.658,60.387      c27.351,6,54.387-11.307,60.387-38.658C574.252,442.13,563.465,419.9,544.316,409.334z"
   id="path78" />
				<path
   style="fill:#EF7F7E;"
   d="M511.297,492.495c-21.382-4.691-34.962-25.903-30.271-47.285      c4.691-21.382,82.247-4.367,77.556,17.015C553.891,483.606,532.679,497.185,511.297,492.495z"
   id="path79" />
				<path
   style="fill:#F8B193;"
   d="M517.31,465.087c20.194,4.43,38.032,2.344,41.464-4.566      c0.386-19.996-69.187-35.259-77.208-16.938C481.789,451.295,497.115,460.657,517.31,465.087z"
   id="path80" />
				<polygon
   style="fill:#070000;"
   points="521.63,378.05 541.908,382.499 520.417,384.739     "
   id="polygon80" />
				<path
   style="fill:none;stroke:#FBFFFF;stroke-width:2;stroke-linecap:round;stroke-linejoin:round;stroke-miterlimit:10;"
   d="      M551.139,430.75c1.183,1.716,2.224,3.529,3.11,5.419"
   id="path81" />
				<path
   style="fill:none;stroke:#FBFFFF;stroke-width:2;stroke-linecap:round;stroke-linejoin:round;stroke-miterlimit:10;"
   d="      M528.22,415.356c7.097,1.557,13.284,5.022,18.139,9.738"
   id="path82" />
				<path
   style="fill:#EF7F7E;"
   d="M518.866,434.543c-0.983,4.482-5.413,7.317-9.895,6.334c-4.481-0.983-7.317-5.413-6.334-9.895      c0.983-4.482,5.413-7.317,9.895-6.334C517.013,425.632,519.849,430.062,518.866,434.543z"
   id="path83" />
				<path
   style="fill:#EF7F7E;"
   d="M533.602,450.463c-0.483,2.204-2.662,3.598-4.865,3.115c-2.204-0.483-3.598-2.662-3.115-4.865      c0.483-2.204,2.662-3.598,4.865-3.115S534.085,448.259,533.602,450.463z"
   id="path84" />
				<path
   style="fill:#EF7F7E;"
   d="M568.597,350.986c-1.169,5.327-6.435,8.698-11.762,7.529c-5.327-1.169-8.698-6.435-7.53-11.762      c1.169-5.327,6.435-8.698,11.762-7.53C566.394,340.393,569.765,345.659,568.597,350.986z"
   id="path85" />
				<path
   style="fill:#EF7F7E;"
   d="M545.261,359.193c-0.74,3.372-4.073,5.505-7.444,4.766c-3.372-0.74-5.505-4.073-4.766-7.444      c0.74-3.372,4.073-5.505,7.444-4.765C543.867,352.488,546.001,355.821,545.261,359.193z"
   id="path86" />
			</g>
			<polygon
   style="fill:#FDCE64;"
   points="210.667,237.667 210.667,212.333 224,231.667 242,226.46 230.667,245 250,261      222,256.333 208,271.667 208,250 192,245    "
   id="polygon86" />
			<polygon
   style="fill:#FDCE64;"
   points="540.729,236.002 541.667,211.167 527.333,231.667 507.167,224.833 518.5,243.333      501.333,261 527.522,256.635 544.333,274.167 543.333,250 562.209,244.101    "
   id="polygon87" />
		</g>
	</g>
	<g
   id="g93"
   style="display:none">
		<path
   style="fill:#070000"
   d="m 411.569,336.836 c -0.407,0 -0.821,0.084 -1.218,0.26 -1.514,0.674 -2.194,2.447 -1.521,3.961 l 12.744,28.625 c 0.674,1.513 2.444,2.192 3.96,1.52 1.514,-0.674 2.194,-2.447 1.521,-3.961 l -12.744,-28.625 c -0.497,-1.116 -1.592,-1.78 -2.742,-1.78 z"
   id="path88" />
		<path
   style="fill:#070000"
   d="m 370.666,344.397 c -1.657,0 -3,1.343 -3,3 v 46.667 c 0,1.657 1.343,3 3,3 1.657,0 3,-1.343 3,-3 v -46.667 c 0,-1.656 -1.343,-3 -3,-3 z"
   id="path89" />
		<path
   style="fill:#070000"
   d="m 330.225,334.667 c -1.148,0 -2.245,0.664 -2.742,1.781 l -12.745,28.625 c -0.674,1.514 0.007,3.287 1.521,3.961 1.513,0.672 3.287,-0.006 3.961,-1.521 l 12.745,-28.625 c 0.674,-1.514 -0.007,-3.287 -1.521,-3.961 -0.397,-0.177 -0.811,-0.26 -1.219,-0.26 z"
   id="path90" />
		<path
   style="fill:#070000"
   d="m 411.569,154.895 c -0.407,0 -0.821,-0.084 -1.218,-0.26 -1.514,-0.674 -2.194,-2.447 -1.521,-3.961 l 12.744,-28.624 c 0.674,-1.513 2.444,-2.192 3.96,-1.521 1.514,0.674 2.194,2.447 1.521,3.961 l -12.744,28.625 c -0.497,1.116 -1.592,1.78 -2.742,1.78 z"
   id="path91" />
		<path
   style="fill:#070000"
   d="m 370.666,147.333 c -1.657,0 -3,-1.343 -3,-3 V 97.666 c 0,-1.657 1.343,-3 3,-3 1.657,0 3,1.343 3,3 v 46.667 c 0,1.657 -1.343,3 -3,3 z"
   id="path92" />
		<path
   style="fill:#070000"
   d="m 330.225,157.064 c -1.148,0 -2.245,-0.664 -2.742,-1.781 l -12.745,-28.625 c -0.674,-1.514 0.007,-3.287 1.521,-3.961 1.513,-0.672 3.287,0.006 3.961,1.521 l 12.745,28.625 c 0.674,1.514 -0.007,3.287 -1.521,3.961 -0.397,0.176 -0.811,0.26 -1.219,0.26 z"
   id="path93" />
	</g>
</g>
<g
   id="TEXTS"
   style="display:none">
	<text
   transform="translate(237.2271,226.46)"
   id="text94"><tspan
     x="0"
     y="0"
     style="font-size:75px;font-family:Chewy-Regular;fill:#070000"
     id="tspan93">BACK TO</tspan><tspan
     x="3.7119999"
     y="90"
     style="font-size:75px;font-family:Chewy-Regular;fill:#070000"
     id="tspan94">SCHOOL</tspan></text>
</g>
</svg>
