<svg width="19" height="19" viewBox="0 0 19 19" fill="none" xmlns="http://www.w3.org/2000/svg">
<g clip-path="url(#clip0_116_316)">
<path d="M7.59979 1.14001C6.97486 1.14001 6.45979 1.65509 6.45979 2.28001V3.42001H1.13979C0.514863 3.42001 -0.000214844 3.93509 -0.000214844 4.56001V10.1888C-0.00318359 10.2125 -0.00318359 10.2363 -0.000214844 10.26V16.72C-0.000214844 17.3449 0.514863 17.86 1.13979 17.86H17.8598C18.4847 17.86 18.9998 17.3449 18.9998 16.72V4.56001C18.9998 3.93509 18.4847 3.42001 17.8598 3.42001H12.5398V2.28001C12.5398 1.65509 12.0247 1.14001 11.3998 1.14001H7.59979ZM7.59979 1.90001H11.3998C11.6135 1.90001 11.7798 2.06626 11.7798 2.28001V3.42001H7.21979V2.28001C7.21979 2.06626 7.38604 1.90001 7.59979 1.90001ZM1.13979 4.18001H17.8598C18.0735 4.18001 18.2398 4.34626 18.2398 4.56001V10.2006C18.2398 10.2125 18.2398 10.2244 18.2398 10.2363V10.26C18.2398 10.4738 18.0735 10.64 17.8598 10.64H1.13979C0.926035 10.64 0.759785 10.4738 0.759785 10.26C0.762754 10.2363 0.762754 10.2125 0.759785 10.1888V4.56001C0.759785 4.34626 0.926035 4.18001 1.13979 4.18001ZM9.49979 8.36001C9.07971 8.36001 8.73979 8.69994 8.73979 9.12001C8.73979 9.54009 9.07971 9.88001 9.49979 9.88001C9.91986 9.88001 10.2598 9.54009 10.2598 9.12001C10.2598 8.69994 9.91986 8.36001 9.49979 8.36001ZM0.759785 11.3288C0.880019 11.3718 1.00619 11.4 1.13979 11.4H17.8598C17.9934 11.4 18.1196 11.3718 18.2398 11.3288V16.72C18.2398 16.9338 18.0735 17.1 17.8598 17.1H1.13979C0.926035 17.1 0.759785 16.9338 0.759785 16.72V11.3288Z" fill="white"/>
</g>
<defs>
<clipPath id="clip0_116_316">
<rect width="19" height="19" fill="white"/>
</clipPath>
</defs>
</svg>
