<svg width="17" height="17" viewBox="0 0 17 17" fill="none" xmlns="http://www.w3.org/2000/svg">
<g clip-path="url(#clip0_116_318)">
<path d="M3.54167 0V2.83333H4.95833V0H3.54167ZM12.0417 0V2.83333H13.4583V0H12.0417ZM0.708333 2.125C0.318197 2.125 0 2.4432 0 2.83333V4.95833C0 5.34847 0.318197 5.66667 0.708333 5.66667V17H16.2917V5.66667C16.6818 5.66667 17 5.34847 17 4.95833V2.83333C17 2.4432 16.6818 2.125 16.2917 2.125H14.1667V3.54167H11.3333V2.125H5.66667V3.54167H2.83333V2.125H0.708333ZM2.125 5.66667H14.875V15.5833H2.125V5.66667ZM3.54167 7.08333V8.5H4.95833V7.08333H3.54167ZM6.375 7.08333V8.5H7.79167V7.08333H6.375ZM9.20833 7.08333V8.5H10.625V7.08333H9.20833ZM12.0417 7.08333V8.5H13.4583V7.08333H12.0417ZM3.54167 9.91667V11.3333H4.95833V9.91667H3.54167ZM6.375 9.91667V11.3333H7.79167V9.91667H6.375ZM9.20833 9.91667V11.3333H10.625V9.91667H9.20833ZM12.0417 9.91667V11.3333H13.4583V9.91667H12.0417ZM3.54167 12.75V14.1667H4.95833V12.75H3.54167ZM6.375 12.75V14.1667H7.79167V12.75H6.375ZM9.20833 12.75V14.1667H10.625V12.75H9.20833ZM12.0417 12.75V14.1667H13.4583V12.75H12.0417Z" fill="white"/>
</g>
<defs>
<clipPath id="clip0_116_318">
<rect width="17" height="17" fill="white"/>
</clipPath>
</defs>
</svg>
