<svg width="16" height="16" viewBox="0 0 16 16" fill="none" xmlns="http://www.w3.org/2000/svg">
<g clip-path="url(#clip0_116_314)">
<path d="M0.64 0.960022C0.29 0.960022 0 1.25002 0 1.60002V15.36C0 15.71 0.29 16 0.64 16H4.48C4.83 16 5.12 15.71 5.12 15.36V1.60002C5.12 1.25002 4.83 0.960022 4.48 0.960022H0.64ZM5.76 0.960022V1.60002H15.36V12.8H10.3C10.2575 12.7913 10.2125 12.7913 10.17 12.8H7.74C7.6975 12.7913 7.6525 12.7913 7.61 12.8H5.76V13.44H7.36V14.08H6.68C6.1625 14.08 5.76 14.5238 5.76 15.04V16H12.16V15.04C12.16 14.5238 11.7575 14.08 11.24 14.08H10.56V13.44H15.36C15.71 13.44 16 13.15 16 12.8V1.60002C16 1.25002 15.71 0.960022 15.36 0.960022H5.76ZM0.64 1.60002H4.48V15.36H0.64V1.60002ZM5.76 2.24002V2.88002H14.08V10.56H5.76V11.2H14.08C14.43 11.2 14.72 10.91 14.72 10.56V2.88002C14.72 2.53002 14.43 2.24002 14.08 2.24002H5.76ZM2.56 13.12C2.20625 13.12 1.92 13.4063 1.92 13.76C1.92 14.1138 2.20625 14.4 2.56 14.4C2.91375 14.4 3.2 14.1138 3.2 13.76C3.2 13.4063 2.91375 13.12 2.56 13.12ZM8 13.44H9.92V14.08H8V13.44ZM6.68 14.72H11.24C11.3887 14.72 11.52 14.8513 11.52 15.04V15.36H6.4V15.04C6.4 14.8513 6.53125 14.72 6.68 14.72Z" fill="white"/>
</g>
<defs>
<clipPath id="clip0_116_314">
<rect width="16" height="16" fill="white"/>
</clipPath>
</defs>
</svg>
