<svg width="18" height="18" viewBox="0 0 18 18" fill="none" xmlns="http://www.w3.org/2000/svg">
<path d="M6.67671 1.49632C6.43971 1.4887 6.19387 1.52282 5.94502 1.62596C5.2814 1.90073 4.98176 2.50418 4.74898 3.00731C4.5162 3.51044 4.3149 3.96863 4.1418 4.14183H4.14107C3.95007 4.33305 3.49115 4.5388 2.9919 4.77172C2.49265 5.00463 1.89682 5.29173 1.62593 5.94579C1.35515 6.59989 1.57382 7.22469 1.76216 7.74242C1.9505 8.26015 2.12922 8.72969 2.12911 8.99999C2.129 9.24497 1.94825 9.7115 1.75704 10.2319C1.56583 10.7523 1.35088 11.3913 1.62593 12.0549C1.9007 12.7185 2.50415 13.0182 3.00728 13.251C3.51041 13.4837 3.96787 13.685 4.14107 13.8581V13.8589H4.1418C4.33302 14.0499 4.53803 14.5088 4.77095 15.008C5.00387 15.5073 5.29097 16.1031 5.94502 16.374C6.59912 16.6448 7.22393 16.4261 7.74166 16.2378C8.25938 16.0494 8.72966 15.8707 8.99996 15.8708C9.24494 15.8709 9.71147 16.0517 10.2319 16.2429C10.7523 16.4341 11.3906 16.6491 12.0542 16.374C12.7178 16.0992 13.0174 15.4958 13.2502 14.9927C13.483 14.4895 13.685 14.0321 13.8581 13.8589V13.8581C14.0491 13.6669 14.508 13.4619 15.0073 13.229C15.5065 12.9961 16.1031 12.709 16.374 12.0549C16.6448 11.4008 16.4261 10.776 16.2377 10.2583C16.0494 9.74056 15.87 9.27028 15.8701 8.99999C15.8702 8.755 16.0517 8.28847 16.2429 7.76805C16.4341 7.24764 16.649 6.60938 16.374 5.94579C16.0992 5.28217 15.4958 4.98252 14.9926 4.74974C14.4895 4.51696 14.0313 4.31493 13.8581 4.14183C13.6669 3.95083 13.4611 3.49192 13.2282 2.99266C12.9953 2.49341 12.7082 1.89685 12.0542 1.62596C11.4001 1.35518 10.7753 1.57385 10.2575 1.76219C9.73979 1.95053 9.27025 2.12998 8.99996 2.12987C8.75497 2.12976 8.28844 1.94828 7.76802 1.75707C7.50781 1.66146 7.21804 1.56009 6.91036 1.51683C6.83344 1.50602 6.75571 1.49886 6.67671 1.49632ZM6.55 2.63011C6.75092 2.62024 7.03089 2.68501 7.37984 2.81322C7.84511 2.98417 8.36821 3.2546 8.99922 3.25487C9.63681 3.25513 10.1735 2.98952 10.642 2.81908C11.1102 2.64876 11.4513 2.59429 11.6235 2.66527C11.7952 2.73638 11.9979 3.01616 12.2087 3.468C12.4194 3.91969 12.6119 4.48669 13.0627 4.93724C13.509 5.38327 14.0704 5.56261 14.5202 5.77074C14.9701 5.97886 15.2536 6.17984 15.3347 6.37572V6.37645C15.4159 6.57236 15.3577 6.91533 15.1867 7.3806C15.0158 7.84587 14.7453 8.36897 14.7451 8.99999C14.7448 9.63757 15.0104 10.1743 15.1809 10.6428C15.3513 11.1113 15.4059 11.4522 15.3347 11.6243C15.2636 11.796 14.9838 11.9987 14.5319 12.2095C14.0802 12.4202 13.5133 12.6126 13.0627 13.0635C12.6167 13.5098 12.4373 14.0704 12.2292 14.5203C12.0211 14.9701 11.8201 15.2536 11.6242 15.3347H11.6235C11.4276 15.4159 11.0846 15.3584 10.6193 15.1875C10.1541 15.0165 9.63097 14.7461 8.99996 14.7458C8.36237 14.7456 7.82565 15.0105 7.35713 15.1809C6.88861 15.3513 6.54771 15.4059 6.37569 15.3347C6.20399 15.2636 6.00128 14.9838 5.79048 14.532C5.57968 14.0801 5.38763 13.5134 4.93648 13.0627C4.49018 12.6167 3.92953 12.4381 3.47969 12.23C3.02986 12.0218 2.74634 11.8201 2.66524 11.6243C2.58404 11.4283 2.64151 11.0854 2.81246 10.6201C2.9834 10.1548 3.25384 9.63174 3.25411 9.00072C3.25437 8.36314 2.98949 7.82642 2.81905 7.3579C2.64873 6.88972 2.59426 6.5486 2.66524 6.37645C2.73635 6.20476 3.01613 6.00205 3.46797 5.79125C3.91981 5.58045 4.48659 5.38839 4.93721 4.93724C5.38324 4.49095 5.56185 3.92956 5.76998 3.47972C5.9781 3.02989 6.17981 2.74637 6.37569 2.66527C6.42467 2.64497 6.48303 2.6334 6.55 2.63011ZM11.8015 5.61986C11.6554 5.62412 11.5167 5.68506 11.4148 5.78978L5.78975 11.4148C5.73577 11.4666 5.69267 11.5287 5.66298 11.5974C5.63329 11.6661 5.6176 11.74 5.61684 11.8149C5.61608 11.8897 5.63026 11.9639 5.65855 12.0332C5.68683 12.1025 5.72866 12.1654 5.78158 12.2184C5.8345 12.2713 5.89745 12.3131 5.96673 12.3414C6.03602 12.3697 6.11025 12.3839 6.18509 12.3831C6.25992 12.3823 6.33385 12.3667 6.40255 12.337C6.47125 12.3073 6.53333 12.2642 6.58516 12.2102L12.2102 6.58519C12.2913 6.50616 12.3467 6.40447 12.3691 6.29343C12.3915 6.18239 12.3799 6.06717 12.3357 5.96286C12.2915 5.85855 12.2169 5.77 12.1216 5.7088C12.0263 5.6476 11.9147 5.6166 11.8015 5.61986ZM6.93746 5.62499C6.58936 5.62499 6.25552 5.76327 6.00938 6.00941C5.76324 6.25555 5.62496 6.58939 5.62496 6.93749C5.62496 7.28558 5.76324 7.61942 6.00938 7.86557C6.25552 8.11171 6.58936 8.24999 6.93746 8.24999C7.28555 8.24999 7.61939 8.11171 7.86553 7.86557C8.11168 7.61942 8.24996 7.28558 8.24996 6.93749C8.24996 6.58939 8.11168 6.25555 7.86553 6.00941C7.61939 5.76327 7.28555 5.62499 6.93746 5.62499ZM11.0625 9.74999C10.7144 9.74999 10.3805 9.88827 10.1344 10.1344C9.88824 10.3806 9.74996 10.7144 9.74996 11.0625C9.74996 11.4106 9.88824 11.7444 10.1344 11.9906C10.3805 12.2367 10.7144 12.375 11.0625 12.375C11.4106 12.375 11.7444 12.2367 11.9905 11.9906C12.2367 11.7444 12.375 11.4106 12.375 11.0625C12.375 10.7144 12.2367 10.3806 11.9905 10.1344C11.7444 9.88827 11.4106 9.74999 11.0625 9.74999Z" fill="white"/>
</svg>
