<svg width="19" height="19" viewBox="0 0 19 19" fill="none" xmlns="http://www.w3.org/2000/svg">
<path d="M10.2542 0.754827C10.2358 0.755226 10.2175 0.756962 10.1993 0.760022H2.66016V18.24H16.3402V17.86V0.760022H13.364C13.3229 0.753239 13.2811 0.753239 13.24 0.760022H10.3188C10.2975 0.756456 10.2759 0.754718 10.2542 0.754827ZM3.42016 1.52002H9.88016V6.08002C9.88014 6.15059 9.89976 6.21976 9.93684 6.2798C9.97391 6.33984 10.027 6.38838 10.0901 6.41996C10.1532 6.45155 10.2238 6.46495 10.2941 6.45865C10.3644 6.45236 10.4315 6.42662 10.488 6.38432L11.7802 5.41502L13.0723 6.38432C13.1288 6.42662 13.1959 6.45236 13.2662 6.45865C13.3365 6.46495 13.4071 6.45155 13.4702 6.41996C13.5333 6.38838 13.5864 6.33984 13.6235 6.2798C13.6606 6.21976 13.6802 6.15059 13.6802 6.08002V1.52002H15.5802V17.48H3.42016V1.52002ZM10.6402 1.52002H12.9202V5.32002L12.008 4.63572C11.9423 4.58647 11.8623 4.55985 11.7802 4.55985C11.698 4.55985 11.6181 4.58647 11.5523 4.63572L10.6402 5.32002V1.52002ZM5.70016 8.74002C5.6498 8.73931 5.59981 8.74861 5.55308 8.76739C5.50635 8.78617 5.46382 8.81404 5.42796 8.8494C5.3921 8.88476 5.36363 8.92689 5.34419 8.97335C5.32475 9.0198 5.31474 9.06966 5.31474 9.12002C5.31474 9.17038 5.32475 9.22024 5.34419 9.2667C5.36363 9.31315 5.3921 9.35529 5.42796 9.39064C5.46382 9.426 5.50635 9.45388 5.55308 9.47265C5.59981 9.49143 5.6498 9.50073 5.70016 9.50002H13.3002C13.3505 9.50073 13.4005 9.49143 13.4472 9.47265C13.494 9.45388 13.5365 9.426 13.5724 9.39064C13.6082 9.35529 13.6367 9.31315 13.6561 9.2667C13.6756 9.22024 13.6856 9.17038 13.6856 9.12002C13.6856 9.06966 13.6756 9.0198 13.6561 8.97335C13.6367 8.92689 13.6082 8.88476 13.5724 8.8494C13.5365 8.81404 13.494 8.78617 13.4472 8.76739C13.4005 8.74861 13.3505 8.73931 13.3002 8.74002H5.70016ZM5.70016 10.64C5.6498 10.6393 5.59981 10.6486 5.55308 10.6674C5.50635 10.6862 5.46382 10.714 5.42796 10.7494C5.3921 10.7848 5.36363 10.8269 5.34419 10.8733C5.32475 10.9198 5.31474 10.9697 5.31474 11.02C5.31474 11.0704 5.32475 11.1202 5.34419 11.1667C5.36363 11.2132 5.3921 11.2553 5.42796 11.2906C5.46382 11.326 5.50635 11.3539 5.55308 11.3727C5.59981 11.3914 5.6498 11.4007 5.70016 11.4H11.4002C11.4505 11.4007 11.5005 11.3914 11.5472 11.3727C11.594 11.3539 11.6365 11.326 11.6724 11.2906C11.7082 11.2553 11.7367 11.2132 11.7561 11.1667C11.7756 11.1202 11.7856 11.0704 11.7856 11.02C11.7856 10.9697 11.7756 10.9198 11.7561 10.8733C11.7367 10.8269 11.7082 10.7848 11.6724 10.7494C11.6365 10.714 11.594 10.6862 11.5472 10.6674C11.5005 10.6486 11.4505 10.6393 11.4002 10.64H5.70016ZM5.70016 12.54C5.6498 12.5393 5.59981 12.5486 5.55308 12.5674C5.50635 12.5862 5.46382 12.614 5.42796 12.6494C5.3921 12.6848 5.36363 12.7269 5.34419 12.7733C5.32475 12.8198 5.31474 12.8697 5.31474 12.92C5.31474 12.9704 5.32475 13.0202 5.34419 13.0667C5.36363 13.1132 5.3921 13.1553 5.42796 13.1906C5.46382 13.226 5.50635 13.2539 5.55308 13.2727C5.59981 13.2914 5.6498 13.3007 5.70016 13.3H13.3002C13.3505 13.3007 13.4005 13.2914 13.4472 13.2727C13.494 13.2539 13.5365 13.226 13.5724 13.1906C13.6082 13.1553 13.6367 13.1132 13.6561 13.0667C13.6756 13.0202 13.6856 12.9704 13.6856 12.92C13.6856 12.8697 13.6756 12.8198 13.6561 12.7733C13.6367 12.7269 13.6082 12.6848 13.5724 12.6494C13.5365 12.614 13.494 12.5862 13.4472 12.5674C13.4005 12.5486 13.3505 12.5393 13.3002 12.54H5.70016ZM5.70016 14.44C5.6498 14.4393 5.59981 14.4486 5.55308 14.4674C5.50635 14.4862 5.46382 14.514 5.42796 14.5494C5.3921 14.5848 5.36363 14.6269 5.34419 14.6733C5.32475 14.7198 5.31474 14.7697 5.31474 14.82C5.31474 14.8704 5.32475 14.9202 5.34419 14.9667C5.36363 15.0132 5.3921 15.0553 5.42796 15.0906C5.46382 15.126 5.50635 15.1539 5.55308 15.1727C5.59981 15.1914 5.6498 15.2007 5.70016 15.2H11.4002C11.4505 15.2007 11.5005 15.1914 11.5472 15.1727C11.594 15.1539 11.6365 15.126 11.6724 15.0906C11.7082 15.0553 11.7367 15.0132 11.7561 14.9667C11.7756 14.9202 11.7856 14.8704 11.7856 14.82C11.7856 14.7697 11.7756 14.7198 11.7561 14.6733C11.7367 14.6269 11.7082 14.5848 11.6724 14.5494C11.6365 14.514 11.594 14.4862 11.5472 14.4674C11.5005 14.4486 11.4505 14.4393 11.4002 14.44H5.70016Z" fill="white"/>
</svg>
