<svg width="17" height="17" viewBox="0 0 17 17" fill="none" xmlns="http://www.w3.org/2000/svg">
<g clip-path="url(#clip0_116_324)">
<path d="M9.81755 -1.94986e-05C9.8109 0.00263675 9.80294 0.00662114 9.7963 0.0106055L0.276294 1.81686C0.114263 1.8474 -0.00261188 1.99084 4.43733e-05 2.15686V14.8431C-0.00261188 15.0091 0.114263 15.1526 0.276294 15.1831L9.7963 16.9894C9.89458 17.008 9.99684 16.9827 10.0752 16.919C10.1522 16.8552 10.1987 16.7609 10.2 16.66V14.96H15.98C16.3519 14.96 16.66 14.6519 16.66 14.28V2.71998C16.66 2.34811 16.3519 2.03998 15.98 2.03998H10.2V0.339981C10.2014 0.241699 10.1589 0.148731 10.0858 0.0836525C10.0128 0.0185742 9.9145 -0.0119726 9.81755 -1.94986e-05ZM9.52005 0.743731V2.22061C9.47489 2.3149 9.47489 2.42381 9.52005 2.51811V14.5562C9.51075 14.6014 9.51075 14.6492 9.52005 14.6944V16.2562L0.680044 14.5669V2.43311L9.52005 0.743731ZM10.2 2.71998H15.98V14.28H10.2V12.58H11.56V11.9H10.2V9.85998H11.56V9.17998H10.2V7.47998H11.56V6.79998H10.2V5.09998H11.56V4.41998H10.2V2.71998ZM12.24 4.41998V5.09998H14.96V4.41998H12.24ZM2.27379 5.33373L4.13317 8.51061L2.10379 11.6875H3.80379L4.90879 9.63686C4.98583 9.43897 5.03629 9.28756 5.05754 9.19061H5.06817C5.112 9.39779 5.1545 9.53858 5.19567 9.61561L6.30067 11.6875H7.99004L6.03504 8.47873L7.93692 5.33373H6.34317L5.33379 7.21436C5.23684 7.46006 5.16778 7.65397 5.13192 7.77748H5.12129C5.06551 7.57029 5.00176 7.38568 4.93004 7.23561L4.01629 5.33373H2.27379ZM12.24 6.79998V7.47998H14.96V6.79998H12.24ZM12.24 9.17998V9.85998H14.96V9.17998H12.24ZM12.24 11.9V12.58H14.96V11.9H12.24Z" fill="white"/>
</g>
<defs>
<clipPath id="clip0_116_324">
<rect width="17" height="17" fill="white"/>
</clipPath>
</defs>
</svg>
