<svg width="19" height="19" viewBox="0 0 19 19" fill="none" xmlns="http://www.w3.org/2000/svg">
<g clip-path="url(#clip0_116_304)">
<path d="M4.55977 0C2.46558 0 0.759766 1.70582 0.759766 3.8C0.759766 5.89418 2.46558 7.6 4.55977 7.6C6.65395 7.6 8.35977 5.89418 8.35977 3.8C8.35977 1.70582 6.65395 0 4.55977 0ZM4.55977 0.76C6.24321 0.76 7.59977 2.11655 7.59977 3.8C7.59977 5.48345 6.24321 6.84 4.55977 6.84C2.87632 6.84 1.51977 5.48345 1.51977 3.8C1.51977 2.11655 2.87632 0.76 4.55977 0.76ZM4.55383 1.5148C4.45318 1.51638 4.35726 1.55782 4.28713 1.63004C4.217 1.70225 4.17839 1.79934 4.17977 1.9V3.56547L2.8698 4.22008C2.82517 4.2424 2.78536 4.27329 2.75266 4.31099C2.71996 4.3487 2.69501 4.39247 2.67922 4.43982C2.66344 4.48717 2.65714 4.53716 2.66068 4.58694C2.66422 4.63672 2.67752 4.68532 2.69984 4.72996C2.72216 4.7746 2.75306 4.81441 2.79076 4.84711C2.82846 4.87981 2.87224 4.90476 2.91959 4.92054C2.96693 4.93632 3.01692 4.94263 3.06671 4.93909C3.11649 4.93555 3.16509 4.92224 3.20973 4.89992L4.6748 4.16738C4.75461 4.1419 4.82375 4.09076 4.87148 4.02191C4.87223 4.02093 4.87297 4.01994 4.87371 4.01895C4.87677 4.01456 4.87974 4.0101 4.88262 4.00559C4.88311 4.00485 4.88361 4.0041 4.8841 4.00336C4.89025 3.99348 4.89595 3.98333 4.90117 3.97293C4.93831 3.90153 4.95182 3.82019 4.93977 3.74063V1.9C4.94046 1.84916 4.93095 1.7987 4.91179 1.7516C4.89263 1.7045 4.86422 1.66173 4.82823 1.62581C4.79225 1.58989 4.74942 1.56156 4.70228 1.54249C4.65515 1.52343 4.60467 1.51401 4.55383 1.5148ZM14.0598 1.9C13.4581 1.9 12.9585 2.13931 12.6355 2.50266C12.3125 2.86601 12.1598 3.33556 12.1598 3.8C12.1598 4.26444 12.3125 4.73399 12.6355 5.09734C12.9585 5.46069 13.4581 5.7 14.0598 5.7C14.6614 5.7 15.161 5.46069 15.484 5.09734C15.807 4.734 15.9598 4.26444 15.9598 3.8C15.9598 3.33556 15.807 2.86601 15.484 2.50266C15.161 2.13931 14.6614 1.9 14.0598 1.9ZM14.0598 2.66C14.4714 2.66 14.7318 2.80069 14.9155 3.00734C15.0992 3.21399 15.1998 3.50444 15.1998 3.8C15.1998 4.09556 15.0992 4.38601 14.9155 4.59266C14.7318 4.79931 14.4714 4.94 14.0598 4.94C13.6481 4.94 13.3877 4.79931 13.204 4.59266C13.0203 4.38601 12.9198 4.09556 12.9198 3.8C12.9198 3.50444 13.0203 3.21399 13.204 3.00734C13.3877 2.80069 13.6481 2.66 14.0598 2.66ZM12.3802 5.69629C12.3767 5.69649 12.3733 5.69674 12.3698 5.69703C12.3698 5.69703 11.7111 5.70483 11.1704 5.86699C11.1662 5.8684 11.162 5.86989 11.1578 5.87145L8.69375 6.70789C8.68725 6.71019 8.68082 6.71266 8.67445 6.71531C8.42768 6.81402 8.1665 7.00328 8.04508 7.30684L8.06066 7.27344L7.00156 9.3152C6.72684 9.80971 6.83744 10.4486 7.29547 10.7921C7.29889 10.7947 7.30236 10.7972 7.30586 10.7996C7.86415 11.1904 8.66422 11.0146 8.99731 10.404C8.99908 10.401 9.00081 10.3981 9.0025 10.3951L9.81074 8.81348L10.6761 8.47504L9.86047 10.9784C9.8589 10.9829 9.85742 10.9873 9.85602 10.9918C9.72139 11.463 9.80282 11.8644 9.9384 12.1734L9.32016 13.3208L7.05871 13.1493C6.35373 13.0951 5.71734 13.6237 5.66266 14.3346C5.60843 15.0396 6.13774 15.676 6.84867 15.7307H6.84941H6.8509C6.8509 15.7307 7.64894 15.788 8.4518 15.845C8.85322 15.8735 9.25583 15.9022 9.56063 15.9236C9.71303 15.9343 9.84041 15.9433 9.93172 15.9496C9.97738 15.9527 10.0139 15.9546 10.0401 15.9563C10.0532 15.9572 10.0636 15.958 10.072 15.9585C10.0804 15.959 10.0589 15.96 10.1076 15.96C10.6185 15.96 11.064 15.6578 11.284 15.2178L11.2877 15.2096L11.8644 13.9056L13.227 14.9016L14.1377 18.1131C14.3081 18.7147 14.9442 19.0694 15.5456 18.8991C16.1473 18.7287 16.5019 18.0933 16.3316 17.4919L15.3653 14.083L15.2079 14.2404C15.2579 14.1905 15.2929 14.1277 15.3092 14.059C15.3254 13.9903 15.3223 13.9184 15.3 13.8514C15.2977 13.8446 15.3004 13.8535 15.2992 13.85C15.1762 13.4648 14.9516 13.1971 14.7552 13.035C14.7523 13.0328 14.7493 13.0305 14.7463 13.0284L13.397 11.9819L13.9893 10.0054L14.2676 10.4589C14.2702 10.4629 14.2729 10.4669 14.2757 10.4708C14.4818 10.7798 14.8269 11.02 15.2376 11.02H17.4798C18.168 11.02 18.7305 10.3991 18.6146 9.70336C18.6139 9.69939 18.6131 9.69543 18.6123 9.69149C18.5001 9.12995 17.9992 8.74 17.4419 8.74H15.9056L14.8391 7.01961L14.8398 7.02184C14.3373 6.19958 13.3554 5.69629 12.3802 5.69629ZM12.3839 6.45703C13.0798 6.45848 13.8589 6.87337 14.1919 7.41816C14.1921 7.41891 14.1924 7.41965 14.1926 7.42039L15.3705 9.32039C15.4046 9.37542 15.4523 9.42081 15.5089 9.45225C15.5656 9.48368 15.6293 9.50012 15.6941 9.5H17.4419C17.6419 9.5 17.8206 9.63964 17.8635 9.83399C17.8952 10.0483 17.7016 10.26 17.4798 10.26H15.2376C15.1164 10.26 15.006 10.1961 14.9081 10.0492L14.1941 8.88324C14.1557 8.82071 14.1001 8.77063 14.0339 8.73902C13.9677 8.70742 13.8937 8.69566 13.821 8.70516C13.7482 8.71465 13.6798 8.745 13.6239 8.79253C13.5681 8.84007 13.5271 8.90276 13.5061 8.97305L12.5939 12.013C12.572 12.0864 12.5727 12.1648 12.596 12.2377C12.6193 12.3107 12.6641 12.3749 12.7246 12.422L14.272 13.6221C14.3662 13.7 14.5032 13.8593 14.5741 14.0786L14.5763 14.0852L15.6005 17.6989C15.659 17.9054 15.5448 18.1096 15.3386 18.168C15.1321 18.2265 14.9272 18.1123 14.8688 17.906L13.9225 14.5684C13.8995 14.4868 13.8498 14.4152 13.7814 14.365L10.8988 12.2587C10.7432 12.1044 10.4146 11.8086 10.5871 11.2018L11.6469 7.94586C11.6693 7.8774 11.6717 7.804 11.654 7.7342C11.6363 7.6644 11.599 7.60108 11.5467 7.55162C11.4944 7.50215 11.429 7.46858 11.3583 7.4548C11.2877 7.44103 11.2145 7.44763 11.1474 7.47383L9.39957 8.15813C9.31285 8.19192 9.24155 8.25635 9.19918 8.33922L8.33008 10.0403C8.20843 10.2633 7.94908 10.3141 7.7482 10.1784C7.60311 10.0652 7.56196 9.87175 7.66582 9.68481C7.6676 9.68161 7.66933 9.6784 7.67102 9.67516L8.73531 7.62301C8.74107 7.61189 8.74627 7.6005 8.7509 7.58887C8.78148 7.51242 8.824 7.47442 8.95723 7.42113L11.3931 6.59434C11.7603 6.48562 12.3756 6.4574 12.3839 6.45703ZM10.432 12.8584L11.2357 13.4462L10.6027 14.8786C10.5182 15.0458 10.2809 15.1987 10.1084 15.1993C10.1029 15.1989 10.0979 15.1991 10.0898 15.1985C10.0651 15.1969 10.0297 15.1942 9.98441 15.1911C9.89389 15.1849 9.76551 15.1758 9.61332 15.1651C9.30893 15.1438 8.90656 15.1157 8.50523 15.0872C7.70333 15.0302 6.90803 14.973 6.90656 14.9729C6.62949 14.9516 6.39866 14.6763 6.42043 14.3932C6.44174 14.1162 6.71781 13.8853 7.00082 13.9071L9.75508 14.1157L10.432 12.8584Z" fill="white"/>
</g>
<defs>
<clipPath id="clip0_116_304">
<rect width="19" height="19" fill="white"/>
</clipPath>
</defs>
</svg>
