<svg width="26" height="26" viewBox="0 0 26 26" fill="none" xmlns="http://www.w3.org/2000/svg">
<path d="M15.2749 14.3C15.2749 14.0414 15.3776 13.7934 15.5605 13.6106C15.7433 13.4277 15.9913 13.325 16.2499 13.325H17.8749C18.1335 13.325 18.3815 13.4277 18.5643 13.6106C18.7472 13.7934 18.8499 14.0414 18.8499 14.3C18.8499 14.5586 18.7472 14.8066 18.5643 14.9894C18.3815 15.1723 18.1335 15.275 17.8749 15.275H16.2499C15.9913 15.275 15.7433 15.1723 15.5605 14.9894C15.3776 14.8066 15.2749 14.5586 15.2749 14.3Z" fill="white"/>
<path d="M16.2499 10.4C15.9913 10.4 15.7433 10.5028 15.5605 10.6856C15.3776 10.8684 15.2749 11.1164 15.2749 11.375C15.2749 11.6336 15.3776 11.8816 15.5605 12.0645C15.7433 12.2473 15.9913 12.35 16.2499 12.35H17.8749C18.1335 12.35 18.3815 12.2473 18.5643 12.0645C18.7472 11.8816 18.8499 11.6336 18.8499 11.375C18.8499 11.1164 18.7472 10.8684 18.5643 10.6856C18.3815 10.5028 18.1335 10.4 17.8749 10.4H16.2499Z" fill="white"/>
<path fill-rule="evenodd" clip-rule="evenodd" d="M10.3999 14.95C11.2619 14.95 12.0885 14.6076 12.698 13.9982C13.3075 13.3886 13.6499 12.562 13.6499 11.7C13.6499 10.8381 13.3075 10.0114 12.698 9.40191C12.0885 8.79242 11.2619 8.45001 10.3999 8.45001C9.53795 8.45001 8.71129 8.79242 8.1018 9.40191C7.49231 10.0114 7.1499 10.8381 7.1499 11.7C7.1499 12.562 7.49231 13.3886 8.1018 13.9982C8.71129 14.6076 9.53795 14.95 10.3999 14.95ZM10.3999 13C10.7447 13 11.0753 12.863 11.3191 12.6193C11.5629 12.3755 11.6999 12.0448 11.6999 11.7C11.6999 11.3552 11.5629 11.0246 11.3191 10.7808C11.0753 10.537 10.7447 10.4 10.3999 10.4C10.0551 10.4 9.72446 10.537 9.48066 10.7808C9.23687 11.0246 9.0999 11.3552 9.0999 11.7C9.0999 12.0448 9.23687 12.3755 9.48066 12.6193C9.72446 12.863 10.0551 13 10.3999 13Z" fill="white"/>
<path fill-rule="evenodd" clip-rule="evenodd" d="M11.0733 5.20001H14.9265C15.9834 5.20001 16.8362 5.20001 17.5265 5.25591C18.2363 5.31441 18.8603 5.43791 19.4375 5.73171C20.3554 6.19889 21.1018 6.94479 21.5695 7.86241C21.8633 8.43961 21.9855 9.06361 22.044 9.77341C22.0999 10.4637 22.0999 11.3165 22.0999 12.3734V13.6266C22.0999 14.6835 22.0999 15.5363 22.044 16.2266C21.9855 16.9364 21.862 17.5604 21.5682 18.1376C21.101 19.0555 20.3552 19.8019 19.4375 20.2696C18.8603 20.5634 18.2363 20.6856 17.5265 20.7441C16.8362 20.8 15.9834 20.8 14.9265 20.8H11.0733C10.0164 20.8 9.1636 20.8 8.4733 20.7441C7.7635 20.6856 7.1395 20.5621 6.5623 20.2683C5.64459 19.8015 4.89826 19.0561 4.4303 18.1389C4.1365 17.5604 4.0143 16.9364 3.9558 16.2266C3.8999 15.5363 3.8999 14.6835 3.8999 13.6266V12.3734C3.8999 11.3165 3.8999 10.4637 3.9558 9.77341C4.0143 9.06361 4.1378 8.43961 4.4316 7.86241C4.89878 6.94451 5.64468 6.19815 6.5623 5.73041C7.1395 5.43661 7.7635 5.31441 8.4733 5.25591C9.1636 5.20001 10.0164 5.20001 11.0733 5.20001ZM8.6332 7.19941C8.043 7.24751 7.7037 7.33851 7.4476 7.46851C6.89674 7.74903 6.44892 8.19685 6.1684 8.74771C6.0384 9.00381 5.9474 9.34311 5.8993 9.93331C5.8512 10.5339 5.8499 11.3074 5.8499 12.415V13.585C5.8499 14.6939 5.8499 15.4661 5.8993 16.068C5.9253 16.3852 5.9643 16.6296 6.0137 16.8272C7.38358 15.9964 8.9613 15.5717 10.5632 15.6027C12.165 15.6338 13.725 16.1194 15.0617 17.0027C15.8136 17.4996 16.4808 18.1141 17.0377 18.8227C17.1547 18.8162 17.2626 18.8097 17.3666 18.8006C17.9568 18.7525 18.2961 18.6615 18.5522 18.5315C19.103 18.251 19.5509 17.8031 19.8314 17.2523C19.9614 16.9962 20.0524 16.6569 20.1005 16.0667C20.1486 15.4661 20.1499 14.6939 20.1499 13.585V12.415C20.1499 11.3074 20.1499 10.5339 20.1005 9.93201C20.0524 9.34311 19.9614 9.00381 19.8314 8.74771C19.5509 8.19685 19.103 7.74903 18.5522 7.46851C18.2961 7.33851 17.9568 7.24751 17.3666 7.19941C16.766 7.15131 15.9938 7.15001 14.8849 7.15001H11.1149C10.0073 7.15001 9.2351 7.15001 8.6332 7.19941ZM14.2999 18.85C13.419 18.1884 12.3842 17.762 11.293 17.6111C9.88066 17.4152 8.4431 17.6894 7.2019 18.3911C7.2799 18.4418 7.3631 18.4886 7.4476 18.5315C7.7037 18.6615 8.043 18.7525 8.6332 18.8006C9.2338 18.8487 10.0073 18.85 11.1149 18.85H14.2999Z" fill="white"/>
<path fill-rule="evenodd" clip-rule="evenodd" d="M10.3999 10.4C10.0551 10.4 9.72446 10.537 9.48066 10.7808C9.23687 11.0246 9.0999 11.3552 9.0999 11.7C9.0999 12.0448 9.23687 12.3755 9.48066 12.6193C9.72446 12.863 10.0551 13 10.3999 13C10.7447 13 11.0753 12.863 11.3191 12.6193C11.5629 12.3755 11.6999 12.0448 11.6999 11.7C11.6999 11.3552 11.5629 11.0246 11.3191 10.7808C11.0753 10.537 10.7447 10.4 10.3999 10.4ZM7.1499 11.7C7.1499 10.8381 7.49231 10.0114 8.1018 9.40191C8.71129 8.79242 9.53795 8.45001 10.3999 8.45001C11.2619 8.45001 12.0885 8.79242 12.698 9.40191C13.3075 10.0114 13.6499 10.8381 13.6499 11.7C13.6499 12.562 13.3075 13.3886 12.698 13.9982C12.0885 14.6076 11.2619 14.95 10.3999 14.95C9.53795 14.95 8.71129 14.6076 8.1018 13.9982C7.49231 13.3886 7.1499 12.562 7.1499 11.7Z" fill="white"/>
</svg>
