<svg width="22" height="22" viewBox="0 0 22 22" fill="none" xmlns="http://www.w3.org/2000/svg">
<path d="M3.4374 1.32001C3.22771 1.35954 3.07646 1.54516 3.0799 1.76001V13.64H1.3199C1.30615 13.64 1.2924 13.64 1.27865 13.64C1.05177 13.6606 0.878177 13.8514 0.879895 14.08V15.84C0.879895 16.0824 1.07755 16.28 1.3199 16.28H2.6399V19.58C2.6399 20.1816 3.13833 20.68 3.7399 20.68C4.34146 20.68 4.8399 20.1816 4.8399 19.58V16.28H17.1599V19.58C17.1599 20.1816 17.6583 20.68 18.2599 20.68C18.8615 20.68 19.3599 20.1816 19.3599 19.58V16.28H20.6799C20.9222 16.28 21.1199 16.0824 21.1199 15.84V14.08C21.1199 13.8377 20.9222 13.64 20.6799 13.64H19.3049C19.3169 13.5816 19.3169 13.5197 19.3049 13.4613L17.0774 4.04251C17.0293 3.81563 16.8127 3.66438 16.5824 3.69876C16.5738 3.7022 16.5635 3.70735 16.5549 3.71251L14.4099 4.22126C14.2466 4.25907 14.1177 4.38798 14.0799 4.55126V4.40001C14.0799 4.15766 13.8822 3.96001 13.6399 3.96001H10.9999V1.76001C10.9999 1.51766 10.8022 1.32001 10.5599 1.32001H7.0674C7.0588 1.32001 7.04849 1.32001 7.0399 1.32001H3.5199C3.50615 1.32001 3.4924 1.32001 3.47865 1.32001C3.4649 1.32001 3.45115 1.32001 3.4374 1.32001ZM3.9599 2.20001H6.5999V13.64H3.9599V2.20001ZM7.4799 2.20001H10.1199V4.35876C10.1199 4.37251 10.1199 4.38626 10.1199 4.40001V13.64H7.4799V2.20001ZM4.71615 3.08001C4.4738 3.11438 4.30365 3.33954 4.33802 3.58188C4.3724 3.82423 4.59755 3.99438 4.8399 3.96001H5.7199C5.87802 3.96173 6.02583 3.87923 6.10661 3.74173C6.18568 3.60423 6.18568 3.43579 6.10661 3.29829C6.02583 3.16079 5.87802 3.07829 5.7199 3.08001H4.8399C4.82615 3.08001 4.8124 3.08001 4.79865 3.08001C4.7849 3.08001 4.77115 3.08001 4.7574 3.08001C4.74365 3.08001 4.7299 3.08001 4.71615 3.08001ZM8.23615 3.08001C7.9938 3.11438 7.82365 3.33954 7.85802 3.58188C7.8924 3.82423 8.11755 3.99438 8.3599 3.96001H9.2399C9.39802 3.96173 9.54583 3.87923 9.62661 3.74173C9.70568 3.60423 9.70568 3.43579 9.62661 3.29829C9.54583 3.16079 9.39802 3.07829 9.2399 3.08001H8.3599C8.34615 3.08001 8.3324 3.08001 8.31865 3.08001C8.3049 3.08001 8.29115 3.08001 8.2774 3.08001C8.26365 3.08001 8.2499 3.08001 8.23615 3.08001ZM16.3211 4.66126L16.5961 5.84376C16.5033 5.67704 16.316 5.58938 16.1286 5.62376C16.1149 5.6272 16.1011 5.63235 16.0874 5.63751L15.6611 5.73376C15.4824 5.7647 15.3415 5.90048 15.3036 6.07751L15.0424 4.96376L16.3211 4.66126ZM14.0799 4.74376L16.1836 13.64H14.0799V4.74376ZM10.9999 4.84001H13.1999V13.64H10.9999V4.84001ZM11.7561 5.72001C11.5138 5.75438 11.3436 5.97954 11.378 6.22188C11.4124 6.46423 11.6376 6.63438 11.8799 6.60001H12.3199C12.478 6.60173 12.6258 6.51923 12.7066 6.38173C12.7857 6.24423 12.7857 6.07579 12.7066 5.93829C12.6258 5.80079 12.478 5.71829 12.3199 5.72001H11.8799C11.8661 5.72001 11.8524 5.72001 11.8386 5.72001C11.8249 5.72001 11.8111 5.72001 11.7974 5.72001C11.7836 5.72001 11.7699 5.72001 11.7561 5.72001ZM16.6511 6.09126L17.9849 11.7425C17.8869 11.6359 17.7426 11.5861 17.5999 11.605C17.5758 11.6084 17.5535 11.6119 17.5311 11.6188C17.5226 11.6222 17.5122 11.6274 17.5036 11.6325L17.0774 11.7288C16.8986 11.7597 16.7577 11.8955 16.7199 12.0725L15.3999 6.46251C15.5168 6.59313 15.7007 6.64126 15.8674 6.58626L16.2936 6.49001C16.4896 6.4522 16.6357 6.28891 16.6511 6.09126ZM4.71615 11.88C4.4738 11.9144 4.30365 12.1395 4.33802 12.3819C4.3724 12.6242 4.59755 12.7944 4.8399 12.76H5.7199C5.87802 12.7617 6.02583 12.6792 6.10661 12.5417C6.18568 12.4042 6.18568 12.2358 6.10661 12.0983C6.02583 11.9608 5.87802 11.8783 5.7199 11.88H4.8399C4.82615 11.88 4.8124 11.88 4.79865 11.88C4.7849 11.88 4.77115 11.88 4.7574 11.88C4.74365 11.88 4.7299 11.88 4.71615 11.88ZM8.23615 11.88C7.9938 11.9144 7.82365 12.1395 7.85802 12.3819C7.8924 12.6242 8.11755 12.7944 8.3599 12.76H9.2399C9.39802 12.7617 9.54583 12.6792 9.62661 12.5417C9.70568 12.4042 9.70568 12.2358 9.62661 12.0983C9.54583 11.9608 9.39802 11.8783 9.2399 11.88H8.3599C8.34615 11.88 8.3324 11.88 8.31865 11.88C8.3049 11.88 8.29115 11.88 8.2774 11.88C8.26365 11.88 8.2499 11.88 8.23615 11.88ZM11.7561 11.88C11.5138 11.9144 11.3436 12.1395 11.378 12.3819C11.4124 12.6242 11.6376 12.7944 11.8799 12.76H12.3199C12.478 12.7617 12.6258 12.6792 12.7066 12.5417C12.7857 12.4042 12.7857 12.2358 12.7066 12.0983C12.6258 11.9608 12.478 11.8783 12.3199 11.88H11.8799C11.8661 11.88 11.8524 11.88 11.8386 11.88C11.8249 11.88 11.8111 11.88 11.7974 11.88C11.7836 11.88 11.7699 11.88 11.7561 11.88ZM18.0811 12.155L18.3424 13.2275L17.0636 13.53L16.8161 12.4575C16.933 12.5881 17.1169 12.6363 17.2836 12.5813L17.7099 12.485C17.8886 12.4609 18.0365 12.3303 18.0811 12.155ZM1.7599 14.52H20.2399V15.4H1.7599V14.52ZM3.5199 16.28H3.9599V19.58C3.9599 19.7055 3.86536 19.8 3.7399 19.8C3.61443 19.8 3.5199 19.7055 3.5199 19.58V16.28ZM18.0399 16.28H18.4799V19.58C18.4799 19.7055 18.3854 19.8 18.2599 19.8C18.1344 19.8 18.0399 19.7055 18.0399 19.58V16.28Z" fill="white"/>
</svg>
