<svg width="21" height="21" viewBox="0 0 21 21" fill="none" xmlns="http://www.w3.org/2000/svg">
<path fill-rule="evenodd" clip-rule="evenodd" d="M8.73815 5.98659C9.8596 5.48062 11.1183 5.36526 12.313 5.65895C13.5078 5.95264 14.5696 6.63842 15.3286 7.60665C16.0877 8.57488 16.5002 9.76965 16.5002 10.9999C16.5002 11.8745 16.2729 12.4408 15.9992 12.7734C15.733 13.0968 15.3847 13.2499 15.0002 13.2499C14.3615 13.2499 14.0396 13.0283 13.8385 12.7268C13.6017 12.3716 13.4645 11.7976 13.4645 11.0001V9.87149C13.4647 9.86154 13.4647 9.85158 13.4645 9.84161V8.42866C13.4645 8.01444 13.1287 7.67866 12.7145 7.67866C12.5078 7.67866 12.3206 7.7623 12.1849 7.8976C11.7466 7.59736 11.1722 7.39284 10.4287 7.39284C9.27024 7.39284 8.4769 7.99352 8.007 8.74534C7.55757 9.46443 7.39299 10.3258 7.39299 11C7.39299 11.6741 7.55757 12.5355 8.007 13.2546C8.4769 14.0065 9.27024 14.6071 10.4287 14.6071C11.38 14.6071 12.0844 14.1394 12.5481 13.6698C12.5716 13.646 12.5946 13.6221 12.6171 13.5982C13.1319 14.3431 13.943 14.7499 15.0002 14.7499C15.824 14.7499 16.6007 14.4031 17.1574 13.7265C17.7066 13.0591 18.0002 12.1254 18.0002 10.9999C18.0002 9.43412 17.4752 7.9135 16.5091 6.68121C15.543 5.44892 14.1917 4.5761 12.6711 4.20232C11.1505 3.82853 9.54855 3.97535 8.12125 4.61931C6.69396 5.26327 5.52378 6.36718 4.79781 7.75455C4.07184 9.14191 3.832 10.7326 4.11663 12.2724C4.40126 13.8121 5.19393 15.212 6.3679 16.2481C7.54188 17.2843 9.02937 17.8969 10.5926 17.9881C12.1557 18.0792 13.7044 17.6437 14.9908 16.751C15.3311 16.5148 15.4156 16.0475 15.1794 15.7072C14.9433 15.3669 14.476 15.2825 14.1357 15.5186C13.1249 16.22 11.9081 16.5622 10.6799 16.4906C9.45166 16.419 8.28292 15.9376 7.36052 15.1235C6.43811 14.3094 5.8153 13.2095 5.59166 11.9997C5.36802 10.7899 5.55647 9.54006 6.12687 8.44999C6.69728 7.35991 7.6167 6.49256 8.73815 5.98659ZM12.0146 11.8644C11.9793 11.58 11.9645 11.2896 11.9645 11.0001V10.0239C11.9533 9.99874 11.9423 9.97387 11.9314 9.94922C11.8416 9.74519 11.7585 9.55659 11.5786 9.35101C11.379 9.12293 11.0568 8.89284 10.4287 8.89284C9.87295 8.89284 9.52341 9.14931 9.27902 9.54034C9.01416 9.96411 8.89301 10.5313 8.89301 11C8.89301 11.4687 9.01416 12.0359 9.27902 12.4596C9.52341 12.8507 9.87295 13.1071 10.4287 13.1071C10.8489 13.1071 11.1921 12.9082 11.4808 12.6159C11.7437 12.3496 11.9209 12.0445 12.0146 11.8644Z" fill="#7A28CB"/>
</svg>
