<svg width="20" height="20" viewBox="0 0 20 20" fill="none" xmlns="http://www.w3.org/2000/svg">
<path d="M1.5999 2V2.8H17.9999V15.6H7.5999V16.4H18.3999C18.6259 16.4 18.7999 16.574 18.7999 16.8V17.2H7.5999V18H19.1999C19.306 18 19.4077 17.9578 19.4827 17.8828C19.5577 17.8078 19.5999 17.7061 19.5999 17.6V16.8C19.5999 16.2974 19.2426 15.9438 18.7999 15.7664V2.4C18.7999 2.29392 18.7577 2.19218 18.6827 2.11717C18.6077 2.04216 18.506 2.00001 18.3999 2H1.5999ZM3.5999 4.4C2.05824 4.4 0.799902 5.65834 0.799902 7.2C0.799902 8.74166 2.05824 10 3.5999 10C5.14156 10 6.3999 8.74166 6.3999 7.2C6.3999 5.65834 5.14156 4.4 3.5999 4.4ZM7.9999 4.4V5.2H8.3999H12.3999H12.7999V4.4H12.3999H8.3999H7.9999ZM13.9999 4.4V5.2H14.3999H16.3999H16.7999V4.4H16.3999H14.3999H13.9999ZM3.5999 5.2C4.70921 5.2 5.5999 6.09069 5.5999 7.2C5.5999 8.30931 4.70921 9.2 3.5999 9.2C2.49059 9.2 1.5999 8.30931 1.5999 7.2C1.5999 6.09069 2.49059 5.2 3.5999 5.2ZM7.9999 6.4V7.2H8.3999H16.3999H16.7999V6.4H16.3999H8.3999H7.9999ZM11.3444 8.69688C11.2553 8.69535 11.1664 8.70254 11.0788 8.71797C10.7285 8.77968 10.4014 8.97549 10.1851 9.28906L8.64131 11.5258L7.18896 11.0414C6.70922 10.8813 6.20677 10.8 5.70146 10.8H2.7999C1.47925 10.8 0.399902 11.8794 0.399902 13.2V18H1.1999V13.2C1.1999 12.3119 1.91175 11.6 2.7999 11.6H5.70146C6.12096 11.6 6.53799 11.6673 6.93584 11.8L8.67334 12.3797C8.75552 12.407 8.84435 12.4069 8.92648 12.3795C9.00861 12.352 9.07961 12.2986 9.12881 12.2273L10.8437 9.74297C11.0286 9.47492 11.3842 9.41221 11.6491 9.60078V9.60156C11.9079 9.78552 11.9697 10.1326 11.7897 10.3945L9.521 13.6977C9.42243 13.8405 9.24727 13.9036 9.08037 13.8555L6.51084 13.1133C6.45126 13.0961 6.38851 13.093 6.32752 13.1042C6.26654 13.1154 6.209 13.1407 6.15945 13.178C6.1099 13.2152 6.06969 13.2635 6.042 13.319C6.01431 13.3745 5.9999 13.4356 5.9999 13.4977V18H6.7999V14.0297L8.8585 14.6242C9.35374 14.7672 9.88845 14.5755 10.1804 14.1508H10.1812L12.4491 10.8477V10.8469C12.871 10.2321 12.7206 9.38112 12.1132 8.94922C11.8804 8.78353 11.6119 8.70146 11.3444 8.69688Z" fill="white"/>
</svg>
