<svg width="19" height="19" viewBox="0 0 19 19" fill="none" xmlns="http://www.w3.org/2000/svg">
<path d="M9.50016 1.58331C5.13491 1.58331 1.5835 5.13473 1.5835 9.49998C1.5835 13.8652 5.13491 17.4166 9.50016 17.4166C9.67829 17.4166 9.85247 17.4022 10.0274 17.3904C9.79942 16.9043 9.64039 16.3804 9.56201 15.8302C9.54064 15.8302 9.52154 15.8333 9.50016 15.8333C6.00812 15.8333 3.16683 12.992 3.16683 9.49998C3.16683 6.00794 6.00812 3.16665 9.50016 3.16665C12.9922 3.16665 15.8335 6.00794 15.8335 9.49998C15.8335 9.52135 15.8304 9.54045 15.8304 9.56183C16.3806 9.6402 16.9053 9.8 17.3905 10.0288C17.4024 9.85304 17.4168 9.6781 17.4168 9.49998C17.4168 5.13473 13.8654 1.58331 9.50016 1.58331ZM8.7085 4.74998V9.17218L5.77376 12.1069L6.89323 13.2264L10.2918 9.82778V4.74998H8.7085ZM15.0418 11.0833C12.856 11.0833 11.0835 12.8559 11.0835 15.0416C11.0835 17.2274 12.856 19 15.0418 19C17.2276 19 19.0002 17.2274 19.0002 15.0416C19.0002 12.8559 17.2276 11.0833 15.0418 11.0833ZM12.6668 14.25H17.4168V15.8333H12.6668V14.25Z" fill="white"/>
</svg>
