<?xml version="1.0" standalone="no"?>
<!DOCTYPE svg PUBLIC "-//W3C//DTD SVG 20010904//EN"
 "http://www.w3.org/TR/2001/REC-SVG-20010904/DTD/svg10.dtd">
<svg version="1.0" xmlns="http://www.w3.org/2000/svg"
 width="500.000000pt" height="500.000000pt" viewBox="0 0 500.000000 500.000000"
 preserveAspectRatio="xMidYMid meet">

<g transform="translate(0.000000,500.000000) scale(0.100000,-0.100000)"
fill="#000000" stroke="none">
<path d="M2812 3613 c-7 -13 -19 -23 -27 -23 -8 0 -20 -9 -28 -21 -11 -14 -17
-17 -22 -8 -6 8 -10 7 -17 -5 -5 -9 -7 -20 -4 -25 6 -9 -46 -34 -70 -34 -8 0
-14 -4 -14 -9 0 -4 -7 -8 -15 -8 -9 0 -15 -9 -15 -25 0 -15 -6 -25 -14 -25 -8
0 -17 -8 -19 -17 -3 -10 -5 28 -6 85 -1 83 -4 102 -16 102 -12 0 -15 -20 -15
-119 l0 -118 68 -7 c80 -7 165 5 213 32 l34 19 3 96 c2 58 -1 97 -7 97 -5 0
-11 8 -13 18 -3 15 -6 14 -16 -5z"/>
<path d="M2548 3110 c-1 -5 -12 -11 -23 -13 -26 -4 -87 -42 -79 -50 3 -3 -3
-10 -14 -16 -11 -6 -22 -8 -25 -3 -2 4 -2 1 -1 -5 4 -18 -107 -123 -129 -123
-10 0 -15 -5 -12 -10 3 -6 -1 -17 -10 -26 -15 -15 -15 -14 -9 12 7 27 6 28
-10 15 -16 -13 -17 -12 -11 15 6 27 5 28 -7 8 -7 -12 -19 -20 -26 -18 -7 1 -8
0 -2 -3 16 -8 11 -26 -6 -19 -10 4 -13 2 -8 -6 5 -7 2 -9 -8 -5 -10 3 -28 -8
-49 -30 -22 -23 -27 -34 -16 -30 12 4 16 3 11 -4 -3 -6 -15 -8 -26 -6 -14 4
-18 1 -14 -8 3 -10 0 -12 -11 -8 -13 5 -15 2 -10 -11 4 -9 3 -15 -3 -11 -5 3
-39 -24 -76 -59 -37 -36 -71 -63 -76 -60 -4 3 -8 -8 -8 -24 0 -39 35 -62 96
-62 38 0 45 -3 40 -16 -3 -9 -9 -26 -12 -39 -4 -16 -11 -21 -25 -18 -26 7 -24
42 4 52 16 7 8 9 -33 8 -49 -2 -55 -4 -58 -25 -2 -12 -8 -20 -13 -17 -5 4 -7
18 -3 33 3 15 -7 2 -21 -28 -50 -102 -52 -83 -9 80 66 254 73 281 79 290 4 6
2 10 -3 10 -8 0 -76 -205 -88 -268 -5 -24 -9 -30 -15 -20 -6 9 -9 5 -9 -14 0
-14 -3 -33 -6 -42 -5 -13 -8 -13 -20 -1 -8 7 -14 18 -14 24 0 15 17 14 23 -1
4 -9 6 -8 6 2 0 8 -4 22 -9 30 -9 13 -11 13 -19 1 -7 -11 -12 -7 -20 20 -10
32 -11 32 -7 4 2 -16 6 -37 10 -46 5 -12 0 -14 -27 -11 -29 3 -35 0 -40 -18
-4 -16 -11 -21 -22 -16 -9 3 -14 2 -11 -3 3 -5 -1 -14 -9 -21 -8 -7 -15 -23
-15 -36 0 -15 -6 -24 -15 -24 -8 0 -15 3 -15 6 0 4 18 65 40 136 43 139 51
185 19 103 -11 -27 -28 -68 -39 -90 -10 -22 -21 -52 -24 -67 -6 -33 -14 -48
-26 -48 -5 0 -6 15 -3 34 3 19 1 36 -6 40 -7 4 -11 -1 -11 -12 0 -23 -39 -34
-67 -19 -10 5 -15 6 -11 2 5 -5 -2 -13 -15 -20 -12 -6 -21 -17 -19 -24 3 -14
-22 -41 -37 -41 -14 0 -17 -11 28 123 22 64 35 117 30 117 -5 0 -9 -6 -9 -14
0 -8 -15 -50 -33 -93 -19 -43 -37 -90 -41 -105 -5 -23 -12 -28 -34 -27 l-27 1
25 7 c14 4 25 13 25 21 0 16 -7 16 -38 4 -14 -5 -18 -3 -15 11 3 19 -27 44
-39 32 -4 -5 -1 -12 7 -17 19 -12 8 -22 -14 -14 -11 4 -15 13 -10 27 5 17 4
18 -9 6 -9 -9 -12 -18 -6 -23 16 -17 10 -29 -8 -15 -16 12 -16 11 1 -16 10
-16 13 -24 5 -17 -15 14 -33 16 -25 3 3 -5 -1 -11 -9 -15 -17 -6 -20 -43 -6
-65 7 -11 32 -14 100 -14 l91 1 0 -29 0 -29 1093 -2 1092 -3 -3 -25 c-2 -14
-1 -22 3 -18 3 3 9 28 13 55 l7 48 89 1 c74 1 92 5 103 20 19 26 16 46 -15
116 -16 35 -46 106 -67 158 -45 111 -41 104 -54 96 -6 -4 -6 -18 -1 -35 6 -22
5 -31 -5 -35 -7 -2 -16 2 -19 10 -3 8 -12 14 -21 14 -8 0 -15 6 -16 13 0 6 -6
-4 -12 -23 l-10 -35 -7 30 c-7 29 -8 29 -10 -10 -1 -22 -4 -33 -7 -25 -3 8
-15 38 -28 65 -12 28 -31 76 -41 107 -11 32 -23 58 -28 58 -4 0 -6 -6 -3 -13
25 -65 107 -332 104 -340 -2 -6 -11 11 -21 36 -10 26 -22 47 -27 47 -5 0 -9 9
-9 19 0 11 -4 23 -10 26 -5 3 -10 0 -10 -7 0 -8 -9 -14 -20 -14 -12 0 -16 4
-11 9 20 20 0 35 -42 31 -23 -2 -47 0 -53 4 -6 4 -25 47 -42 97 -18 49 -37 94
-43 100 -7 7 -9 5 -5 -5 9 -25 87 -282 101 -335 8 -27 13 -51 11 -53 -3 -2 -7
7 -11 20 -7 23 -32 83 -53 128 -12 25 -12 25 -7 -5 l5 -30 -15 25 c-8 14 -15
21 -15 15 -1 -5 -6 1 -11 15 -9 22 -12 23 -23 8 -11 -16 -32 -22 -69 -19 -14
1 -16 6 -11 29 7 25 6 26 -11 12 -10 -8 -16 -10 -13 -5 3 6 -5 42 -18 80 -13
39 -24 77 -24 86 0 9 -7 22 -15 29 -8 7 -15 9 -15 6 0 -8 53 -200 82 -298 30
-97 16 -107 -16 -11 -15 45 -34 87 -42 94 -9 7 -13 21 -11 31 3 10 1 15 -4 12
-5 -3 -26 11 -47 30 -20 20 -45 36 -55 36 -10 0 -15 5 -12 10 4 6 -5 22 -19
36 -14 15 -28 35 -31 45 -4 13 -16 19 -36 19 -18 0 -28 -4 -24 -10 4 -6 11 -7
17 -4 7 5 8 2 3 -6 -4 -7 -2 -16 6 -21 9 -5 9 -9 3 -9 -7 0 -25 15 -41 33 -16
18 -39 40 -51 48 -12 9 -59 51 -106 95 -114 107 -132 121 -138 104z m176 -288
c164 -163 215 -220 218 -242 3 -17 1 -30 -4 -30 -4 0 -8 -7 -8 -16 0 -9 -5
-12 -12 -8 -10 6 -10 5 -1 -7 10 -13 10 -19 -3 -35 -14 -16 -15 -17 -10 -1 3
11 0 17 -9 17 -8 0 -15 -4 -15 -10 0 -5 -7 -7 -15 -4 -8 4 -15 12 -15 20 0 32
-59 1 -61 -32 0 -12 -4 -8 -9 10 -5 16 -6 34 -3 39 3 6 1 7 -4 4 -6 -4 -14 3
-18 16 l-8 22 -4 -22 c-2 -12 1 -31 6 -42 6 -11 11 -30 10 -43 l0 -23 -11 23
c-15 29 -46 37 -116 26 -64 -9 -232 -13 -227 -4 2 3 -7 5 -18 5 -12 1 -34 4
-48 8 -21 5 -32 0 -58 -25 -17 -17 -33 -29 -36 -26 -2 2 2 28 10 58 8 30 15
56 15 58 0 1 -7 2 -15 2 -8 0 -15 -8 -15 -19 0 -29 -26 -85 -34 -72 -10 15
-81 14 -106 -1 -17 -11 -22 -10 -31 2 -8 12 -9 10 -4 -7 5 -19 2 -23 -14 -23
-24 0 -24 0 -9 60 6 25 10 59 9 77 -1 28 19 52 216 247 120 119 224 215 231
214 6 -2 108 -99 226 -216z m-499 38 c3 -5 1 -10 -4 -10 -6 0 -11 5 -11 10 0
6 2 10 4 10 3 0 8 -4 11 -10z m-61 -21 c-3 -5 -10 -7 -15 -4 -5 4 -9 1 -9 -4
0 -6 -5 -11 -12 -11 -6 0 -3 8 7 20 17 19 41 18 29 -1z m33 4 c-4 -3 -2 -12 4
-20 7 -8 8 -13 1 -13 -12 0 -23 26 -15 34 4 3 9 6 11 6 3 0 2 -3 -1 -7z m763
-307 c0 -3 -4 -8 -10 -11 -5 -3 -10 -1 -10 4 0 6 5 11 10 11 6 0 10 -2 10 -4z
m-1013 -48 c-3 -8 -6 -5 -6 6 -1 11 2 17 5 13 3 -3 4 -12 1 -19z m1019 -6 c1
-7 0 -8 -2 -3 -3 6 -12 7 -21 4 -11 -4 -14 -3 -9 6 9 14 29 10 32 -7z m-359
-38 c-3 -3 -12 -4 -19 -1 -8 3 -5 6 6 6 11 1 17 -2 13 -5z"/>
<path d="M2260 2939 c0 -6 7 -9 15 -6 8 4 17 2 20 -3 3 -4 -1 -11 -7 -13 -9
-4 -10 -6 -1 -6 19 -1 27 20 12 30 -19 12 -39 11 -39 -2z"/>
<path d="M3616 2865 c4 -8 11 -15 16 -15 6 0 5 6 -2 15 -7 8 -14 15 -16 15 -2
0 -1 -7 2 -15z"/>
<path d="M3640 2805 c0 -8 4 -15 10 -15 5 0 7 7 4 15 -4 8 -8 15 -10 15 -2 0
-4 -7 -4 -15z"/>
<path d="M1696 2773 c-6 -14 -5 -15 5 -6 7 7 10 15 7 18 -3 3 -9 -2 -12 -12z"/>
<path d="M3200 2680 c0 -19 3 -21 12 -12 9 9 9 15 0 24 -9 9 -12 7 -12 -12z"/>
<path d="M3291 2674 c0 -11 3 -14 6 -6 3 7 2 16 -1 19 -3 4 -6 -2 -5 -13z"/>
<path d="M1710 2630 c-11 -7 -12 -12 -4 -20 8 -8 13 -6 17 9 3 12 4 21 4 21
-1 0 -9 -5 -17 -10z"/>
<path d="M1518 2553 c2 -12 8 -20 13 -17 14 8 11 41 -4 41 -9 0 -12 -9 -9 -24z"/>
<path d="M1315 2550 c-3 -5 -1 -10 4 -10 6 0 11 5 11 10 0 6 -2 10 -4 10 -3 0
-8 -4 -11 -10z"/>
<path d="M1495 2540 c3 -5 8 -10 11 -10 2 0 4 5 4 10 0 6 -5 10 -11 10 -5 0
-7 -4 -4 -10z"/>
<path d="M2291 2058 c0 -13 4 -41 8 -63 8 -38 9 -39 10 -8 0 17 6 35 11 38 6
4 8 11 5 16 -4 5 64 9 169 9 l176 0 0 -79 c0 -44 -4 -83 -10 -86 -5 -3 -10
-15 -10 -26 0 -10 -5 -19 -10 -19 -6 0 -9 -3 -8 -7 1 -9 -9 -39 -21 -63 -10
-18 -34 -24 -66 -16 -21 5 -22 9 -15 41 4 19 5 35 1 34 -14 -1 -45 -18 -34
-18 6 -1 9 -10 6 -21 -6 -23 -43 -27 -43 -5 0 8 -9 15 -19 15 -11 0 -21 6 -24
13 -2 6 -8 9 -12 5 -5 -5 -1 -16 8 -26 10 -10 17 -21 17 -24 0 -12 -39 -15
-49 -5 -6 6 -11 7 -11 2 0 -6 -5 -3 -11 5 -8 12 -9 10 -5 -10 13 -55 16 -74
10 -63 -3 7 -12 9 -20 6 -11 -4 -14 -26 -14 -94 l0 -89 185 0 185 0 0 280 0
280 -205 0 -205 0 1 -22z m371 -350 c-7 -7 -13 -2 -17 13 -5 14 -3 25 4 27 6
2 12 16 13 30 1 15 3 7 5 -17 3 -24 0 -48 -5 -53z m-162 34 c0 -5 10 -14 23
-20 21 -10 21 -11 2 -11 -11 -1 -26 8 -33 19 -7 12 -8 20 -2 20 5 0 10 -4 10
-8z m117 -48 c-3 -3 -12 -4 -19 -1 -8 3 -5 6 6 6 11 1 17 -2 13 -5z m-270 -26
c-3 -8 -6 -5 -6 6 -1 11 2 17 5 13 3 -3 4 -12 1 -19z"/>
<path d="M2299 1808 c-1 -73 -2 -161 -3 -196 -1 -34 2 -70 6 -80 4 -9 7 79 7
196 1 116 -1 212 -4 212 -3 0 -6 -60 -6 -132z"/>
<path d="M2620 1924 c0 -8 5 -12 10 -9 6 3 10 10 10 16 0 5 -4 9 -10 9 -5 0
-10 -7 -10 -16z"/>
<path d="M2624 1875 c3 -8 1 -15 -4 -15 -6 0 -10 5 -10 10 0 6 -12 10 -27 9
l-28 -1 33 -14 c18 -8 37 -12 43 -9 13 8 11 35 -2 35 -6 0 -9 -7 -5 -15z"/>
<path d="M950 1620 c0 -41 3 -50 18 -50 25 0 72 -41 74 -65 0 -11 0 -46 0 -77
-2 -51 -5 -58 -22 -58 -11 0 -20 -7 -20 -15 0 -9 -11 -20 -25 -25 -14 -5 -25
-16 -25 -25 0 -16 1 -17 60 -17 89 0 80 -21 80 192 l0 190 -70 0 -70 0 0 -50z"/>
<path d="M3950 1625 c0 -29 5 -36 34 -50 26 -13 36 -24 40 -51 4 -19 4 -39 1
-45 -4 -5 -2 -16 4 -23 7 -8 7 -23 1 -44 -5 -18 -6 -32 -2 -32 4 0 -6 -7 -22
-15 -15 -8 -33 -12 -39 -8 -6 3 -7 1 -3 -5 4 -6 0 -22 -9 -36 -20 -30 -14 -33
58 -35 l59 -1 -3 93 c-1 50 -4 136 -6 190 l-5 97 -54 0 -54 0 0 -35z"/>
<path d="M2791 1534 c0 -11 3 -14 6 -6 3 7 2 16 -1 19 -3 4 -6 -2 -5 -13z"/>
<path d="M1400 1400 c0 -21 4 -21 255 -19 162 1 253 5 249 11 -3 5 2 9 12 8
54 -6 174 1 174 10 0 6 -122 10 -345 10 -341 0 -345 0 -345 -20z"/>
<path d="M2920 1410 c0 -6 28 -10 64 -10 36 0 67 -4 71 -9 8 -15 484 -14 501
0 11 9 15 8 20 -5 9 -24 24 -19 24 9 l0 25 -340 0 c-220 0 -340 -4 -340 -10z"/>
<path d="M3069 1338 c9 -12 10 -18 2 -18 -6 0 -11 -7 -11 -15 0 -9 9 -15 25
-15 17 0 25 5 25 18 0 14 -2 15 -10 2 -8 -13 -10 -13 -10 1 0 9 -8 23 -17 30
-16 13 -17 12 -4 -3z"/>
</g>
</svg>
