<svg width="19" height="19" viewBox="0 0 19 19" fill="none" xmlns="http://www.w3.org/2000/svg">
<g clip-path="url(#clip0_116_312)">
<path d="M11.6089 0.593147C11.5772 0.593339 11.5456 0.598625 11.5156 0.608803L9.62761 1.2385V1.24256C9.58394 1.25593 9.54403 1.27937 9.51107 1.31098L6.66698 4.15623H1.46355C1.23021 4.1593 1.00761 4.25479 0.844566 4.42175C0.681523 4.5887 0.591342 4.8135 0.593799 5.04685V14.5469C0.591342 14.7802 0.681523 15.005 0.844566 15.172C1.00761 15.3389 1.23021 15.4344 1.46355 15.4375H7.36858L7.17028 16.625H6.82817C6.78204 16.625 6.73653 16.6357 6.69526 16.6563C6.654 16.677 6.61811 16.7069 6.59044 16.7438L5.69982 17.9313C5.66676 17.9755 5.64664 18.0279 5.64172 18.0828C5.63679 18.1377 5.64726 18.1929 5.67194 18.2422C5.69662 18.2915 5.73454 18.333 5.78145 18.362C5.82836 18.3909 5.88242 18.4063 5.93755 18.4062H13.0625C13.1177 18.4063 13.1717 18.3909 13.2186 18.362C13.2656 18.333 13.3035 18.2915 13.3282 18.2422C13.3528 18.1929 13.3633 18.1377 13.3584 18.0828C13.3535 18.0279 13.3333 17.9755 13.3003 17.9313L12.4097 16.7438C12.382 16.7069 12.3461 16.677 12.3048 16.6563C12.2636 16.6357 12.2181 16.625 12.1719 16.625H11.8298L11.6315 15.4375H17.5365C17.7699 15.4344 17.9925 15.3389 18.1555 15.172C18.3186 15.005 18.4088 14.7802 18.4063 14.5469V5.04685C18.4088 4.8135 18.3186 4.5887 18.1555 4.42175C17.9925 4.25479 17.7699 4.1593 17.5365 4.15623H10.0254L11.192 2.99018C11.1953 2.98692 11.1966 2.98273 11.1995 2.97916C11.2189 2.95762 11.2351 2.93341 11.2477 2.90726C11.2515 2.89895 11.256 2.89124 11.2593 2.88233C11.2593 2.87996 11.2619 2.87775 11.2627 2.87537L11.8924 0.984535C11.9075 0.939719 11.9116 0.891957 11.9045 0.845222C11.8974 0.798487 11.8792 0.754132 11.8514 0.715846C11.8237 0.677561 11.7872 0.646453 11.745 0.625111C11.7029 0.603769 11.6562 0.592811 11.6089 0.593147ZM11.1404 1.35969L10.8511 2.23002L10.2869 1.66584L10.2718 1.6496L11.1404 1.35969ZM9.72213 1.94068L9.93145 2.15058L3.21465 8.86796L3.00475 8.65806L9.72213 1.94068ZM10.3512 2.57096L10.5606 2.78144L3.84435 9.49766L3.63445 9.28776L10.3512 2.57096ZM1.46355 4.74998H6.07323L2.37505 8.44816L1.74535 9.07786C1.57837 9.24488 1.48456 9.47138 1.48456 9.70756C1.48456 9.94373 1.57837 10.1702 1.74535 10.3373L2.16515 10.7571C2.33217 10.924 2.55867 11.0178 2.79485 11.0178C3.03102 11.0178 3.25753 10.924 3.42455 10.7571L4.05425 10.1274L9.43221 4.74998H17.5365C17.6121 4.75384 17.6832 4.78701 17.7348 4.84244C17.7863 4.89786 17.8142 4.97119 17.8125 5.04685V13.0625H1.18755V5.04685C1.18591 4.97119 1.21381 4.89786 1.26534 4.84244C1.31687 4.78701 1.38797 4.75384 1.46355 4.74998ZM15.1407 5.6406C15.0747 5.64067 15.0107 5.6627 14.9586 5.70322L13.85 6.5637C13.4661 6.19083 12.9964 5.91802 12.4823 5.76927C11.9683 5.62053 11.4255 5.60041 10.9018 5.71068C10.3781 5.82095 9.88956 6.05824 9.47911 6.40167C9.06866 6.74509 8.74891 7.18413 8.54797 7.68014C8.34704 8.17616 8.2711 8.71396 8.32682 9.24622C8.38253 9.77849 8.56821 10.2889 8.86751 10.7326C9.16681 11.1762 9.57055 11.5395 10.0432 11.7905C10.5159 12.0415 11.043 12.1724 11.5782 12.1719C12.3415 12.1722 13.0807 11.9039 13.6662 11.414L14.337 12.0849C14.3927 12.1406 14.4682 12.1718 14.5469 12.1719H17.2188V11.5781H14.6698L14.086 10.9942C14.5483 10.4416 14.814 9.75113 14.8413 9.03115C14.8686 8.31117 14.6559 7.60252 14.2367 7.01655L15.2427 6.23435H16.625V5.6406H15.1407ZM11.5782 6.23435C12.2437 6.23457 12.885 6.48453 13.3751 6.93479L12.2867 7.78135L12.6509 8.24985L13.7688 7.38068C14.0992 7.85228 14.2676 8.41838 14.2487 8.99389C14.2297 9.5694 14.0245 10.1232 13.6638 10.5721L11.7881 8.69633C11.7324 8.64065 11.6569 8.60936 11.5782 8.60935H8.92369C8.99733 7.9566 9.30858 7.35377 9.79813 6.91577C10.2877 6.47776 10.9213 6.23521 11.5782 6.23435ZM15.4375 8.0156V8.60935H17.2188V8.0156H15.4375ZM2.58495 9.07786L3.42455 9.91746L3.00475 10.3373C2.94823 10.3913 2.87305 10.4215 2.79485 10.4215C2.71665 10.4215 2.64147 10.3913 2.58495 10.3373L2.16515 9.91746C2.10949 9.86178 2.07822 9.78628 2.07822 9.70756C2.07822 9.62883 2.10949 9.55333 2.16515 9.49766L2.58495 9.07786ZM8.92369 9.2031H11.4552L13.244 10.9919C12.7719 11.3716 12.1841 11.5784 11.5782 11.5781C10.9213 11.5772 10.2877 11.3347 9.79813 10.8967C9.30858 10.4587 8.99733 9.85585 8.92369 9.2031ZM15.4375 9.2031V9.79685H17.2188V9.2031H15.4375ZM5.3438 9.49998V10.0937H7.7188V9.49998H5.3438ZM15.4375 10.3906V10.9844H17.2188V10.3906H15.4375ZM5.3438 10.6875V11.2812H7.7188V10.6875H5.3438ZM5.3438 11.875V12.4687H7.7188V11.875H5.3438ZM1.18755 13.6562H17.8125V14.5469C17.8142 14.6225 17.7863 14.6958 17.7348 14.7513C17.6832 14.8067 17.6121 14.8399 17.5365 14.8437H1.46355C1.38797 14.8399 1.31687 14.8067 1.26534 14.7513C1.21381 14.6958 1.18591 14.6225 1.18755 14.5469V13.6562ZM9.20317 13.9531V14.5469H9.79692V13.9531H9.20317ZM7.97045 15.4375H11.0297L11.228 16.625H7.77214L7.97045 15.4375ZM6.97661 17.2187H12.0235L12.4688 17.8125H6.5313L6.97661 17.2187Z" fill="white"/>
</g>
<defs>
<clipPath id="clip0_116_312">
<rect width="19" height="19" fill="white"/>
</clipPath>
</defs>
</svg>
