<svg width="20" height="20" viewBox="0 0 20 20" fill="none" xmlns="http://www.w3.org/2000/svg">
<path d="M10 0.833313C9.63848 0.833313 9.27721 0.883212 8.92741 0.983866L2.11914 2.94106C1.98888 2.97863 1.87437 3.05752 1.79286 3.16585C1.71136 3.27419 1.66728 3.40608 1.66728 3.54165C1.66728 3.67721 1.71136 3.80911 1.79286 3.91744C1.87437 4.02577 1.98888 4.10467 2.11914 4.14223L4.16667 4.73061V5.15948C4.16255 5.16296 4.15848 5.16649 4.15446 5.17006C2.6391 6.59865 1.25 8.85313 1.25 13.5416V15.625C1.25 16.8832 2.28343 17.9166 3.54167 17.9166H7.45036C8.21241 18.439 9.07463 18.75 10 18.75C10.9254 18.75 11.7876 18.439 12.5496 17.9166H16.4583C17.7166 17.9166 18.75 16.8832 18.75 15.625V13.5416C18.75 8.85313 17.3609 6.59865 15.8455 5.17006C15.8415 5.16649 15.8374 5.16296 15.8333 5.15948V4.73061L17.8809 4.14223C18.0111 4.10467 18.1256 4.02577 18.2071 3.91744C18.2886 3.80911 18.3327 3.67721 18.3327 3.54165C18.3327 3.40608 18.2886 3.27419 18.2071 3.16585C18.1256 3.05752 18.0111 2.97863 17.8809 2.94106L11.0726 0.983866C10.7228 0.883212 10.3615 0.833313 10 0.833313ZM10 2.08331C10.2462 2.08331 10.4923 2.11736 10.7275 2.18504L15.4468 3.54165L10.7267 4.89825C10.2562 5.03364 9.74294 5.03364 9.27246 4.89825L4.55322 3.54165L9.27246 2.18504C9.50766 2.11736 9.75383 2.08331 10 2.08331ZM5.41667 5.09031L8.92741 6.09943C9.62693 6.30071 10.3731 6.30071 11.0726 6.09943L14.5833 5.09031V6.1865C13.0673 7.00795 11.5732 7.49495 10.096 7.49998C8.57887 7.50537 7.01792 7.00697 5.41667 6.17918V5.09031ZM4.25456 6.90672C4.31164 7.00344 4.39373 7.083 4.49219 7.13702C6.33466 8.1428 8.20621 8.75672 10.1009 8.74998C11.1839 8.74619 12.2536 8.53281 13.3081 8.15753C13.9637 8.64696 14.5754 9.44442 14.5809 11.0229C14.4755 12.8892 13.8921 14.5453 13.0485 15.7007C12.7399 16.1233 12.4015 16.4749 12.0418 16.7537C12.0077 16.7737 11.9756 16.7969 11.9458 16.8229C11.3445 17.2623 10.6863 17.5 10 17.5C9.31492 17.5 8.65785 17.2632 8.05745 16.8253C8.027 16.7986 7.99403 16.7749 7.95898 16.7545C7.59898 16.4756 7.26035 16.1236 6.9515 15.7007C6.10534 14.5419 5.51865 12.8805 5.41585 11.0075C5.41138 10.9255 5.3908 10.8452 5.35529 10.7712C5.31978 10.6971 5.27004 10.6308 5.2089 10.576C5.14777 10.5212 5.07643 10.479 4.99898 10.4518C4.92152 10.4246 4.83946 10.4128 4.75748 10.4173C4.6755 10.4218 4.59521 10.4424 4.52119 10.4779C4.44717 10.5135 4.38087 10.5632 4.32608 10.6244C4.2713 10.6855 4.22909 10.7569 4.20188 10.8343C4.17466 10.9118 4.16298 10.9938 4.16748 11.0758C4.28218 13.1657 4.92583 15.0458 5.94238 16.438C6.00068 16.5178 6.06533 16.59 6.1263 16.6666H3.54167C2.95907 16.6666 2.5 16.2076 2.5 15.625V13.5416C2.5 9.96235 3.26283 8.14195 4.25456 6.90672ZM15.7454 6.90672C16.7372 8.14194 17.5 9.96235 17.5 13.5416V15.625C17.5 16.2076 17.0409 16.6666 16.4583 16.6666H13.8737C13.9347 16.59 13.9993 16.5178 14.0576 16.438C15.0742 15.0458 15.7178 13.1657 15.8325 11.0758C15.8331 11.0644 15.8334 11.053 15.8333 11.0416C15.8333 9.47485 15.2699 8.36102 14.576 7.62449C14.8917 7.47177 15.2066 7.31006 15.5192 7.13051C15.6127 7.07668 15.6906 6.99959 15.7454 6.90672ZM7.91667 11.25C7.69565 11.25 7.48369 11.3378 7.32741 11.4941C7.17113 11.6503 7.08333 11.8623 7.08333 12.0833C7.08333 12.3043 7.17113 12.5163 7.32741 12.6726C7.48369 12.8288 7.69565 12.9166 7.91667 12.9166C8.13768 12.9166 8.34964 12.8288 8.50592 12.6726C8.6622 12.5163 8.75 12.3043 8.75 12.0833C8.75 11.8623 8.6622 11.6503 8.50592 11.4941C8.34964 11.3378 8.13768 11.25 7.91667 11.25ZM12.0833 11.25C11.8623 11.25 11.6504 11.3378 11.4941 11.4941C11.3378 11.6503 11.25 11.8623 11.25 12.0833C11.25 12.3043 11.3378 12.5163 11.4941 12.6726C11.6504 12.8288 11.8623 12.9166 12.0833 12.9166C12.3043 12.9166 12.5163 12.8288 12.6726 12.6726C12.8289 12.5163 12.9167 12.3043 12.9167 12.0833C12.9167 11.8623 12.8289 11.6503 12.6726 11.4941C12.5163 11.3378 12.3043 11.25 12.0833 11.25Z" fill="white"/>
</svg>
