<svg width="22" height="22" viewBox="0 0 22 22" fill="none" xmlns="http://www.w3.org/2000/svg">
<g clip-path="url(#clip0_116_306)">
<path d="M11 0.809265L1.6167 5.50002L4.58333 6.98244V10.0834V11.12C3.86833 11.7066 3.5205 12.659 3.72217 13.6032C3.92383 14.5382 4.66548 15.2627 5.59131 15.501C6.05881 17.6277 8.305 19.25 11 19.25C11.6508 19.25 12.2558 19.1592 12.8333 18.985V17.0407C12.2925 17.279 11.6692 17.4167 11 17.4167C8.97417 17.4167 7.33333 16.1792 7.33333 14.6667V13.75H6.25195C5.89445 13.75 5.58207 13.5206 5.5179 13.2272C5.4354 12.8422 5.64638 12.5586 5.89388 12.4395L6.41667 12.1924V10.0834C6.41667 9.95731 6.44173 9.83664 6.48828 9.72707C6.53483 9.6175 6.60215 9.51831 6.68522 9.43524C6.85137 9.2691 7.08125 9.16669 7.33333 9.16669H14.6667C15.1708 9.16669 15.5833 9.57919 15.5833 10.0834V12.1924L16.1061 12.4395C16.262 12.5128 16.4 12.65 16.4642 12.8334H18.3154C18.2604 12.1642 17.93 11.5508 17.4167 11.12V10.0834V6.98244L20.3833 5.50002L11 0.809265ZM11 2.85744L16.2834 5.50002L15.5833 5.85093V7.49807C15.2992 7.38807 14.9875 7.33335 14.6667 7.33335H7.33333C7.0125 7.33335 6.70083 7.38807 6.41667 7.49807V5.85093L5.71663 5.50002L11 2.85744ZM17.4167 14.6667V17.4167H14.6667V19.25H17.4167V22H19.25V19.25H22V17.4167H19.25V14.6667H17.4167Z" fill="white"/>
</g>
<defs>
<clipPath id="clip0_116_306">
<rect width="22" height="22" fill="white"/>
</clipPath>
</defs>
</svg>
