<svg width="22" height="22" viewBox="0 0 22 22" fill="none" xmlns="http://www.w3.org/2000/svg">
<path d="M12 2L2 5.04L4.38882 5.76438L6.61538 6.44125V8.46594C6.51923 8.58172 6.44712 8.69453 6.39002 8.81328C6.2518 9.10125 6.16466 9.42188 6.08654 9.80188C5.9393 10.5233 5.86118 11.4555 5.85216 12.4767C5.38341 12.8923 5.07692 13.4891 5.07692 14.16C5.07692 15.1308 5.77404 15.8314 6.64243 16.158C6.99099 17.1495 7.57091 18.2391 8.40625 19.1623C9.31971 20.1688 10.5397 21 12 21C13.4603 21 14.6803 20.1688 15.5937 19.1623C16.4291 18.2391 17.009 17.1495 17.3576 16.158C18.226 15.8314 18.9231 15.1308 18.9231 14.16C18.9231 13.4891 18.6196 12.8834 18.1448 12.4648C18.1358 11.4466 18.0577 10.5203 17.9135 9.80188C17.8353 9.42188 17.7482 9.10125 17.61 8.81328C17.5529 8.69453 17.4808 8.58172 17.3846 8.46594V6.44125L22 5.04L12 2ZM12 3.59125L16.7716 5.04L12 6.48875L7.22837 5.04L12 3.59125ZM8.15385 6.91031L12 8.08L12.2284 8.01172L15.8462 6.91031V8.67375C15.8371 8.68563 15.8462 8.68859 15.8101 8.71234C15.6899 8.81328 15.4405 8.95875 15.098 9.09531C14.4099 9.36547 13.3431 9.6 12 9.6C10.6569 9.6 9.59014 9.36547 8.90204 9.09531C8.5595 8.95875 8.3101 8.81328 8.1899 8.71234C8.15385 8.68859 8.16286 8.68563 8.15385 8.67375V6.91031ZM7.58894 10.1373C7.8113 10.2709 8.05168 10.3956 8.33413 10.5055C9.23858 10.8617 10.4796 11.12 12 11.12C13.5204 11.12 14.7614 10.8617 15.6659 10.5055C15.9483 10.3956 16.1887 10.2709 16.4111 10.1373C16.5312 10.7519 16.6154 11.6484 16.6154 12.64V13.2842L17 13.5069C17.2344 13.6375 17.3846 13.872 17.3846 14.16C17.3846 14.5667 17.0781 14.8784 16.6755 14.9111L16.1587 14.9527L16.0054 15.4425C15.75 16.2648 15.1791 17.3395 14.4429 18.15C13.7097 18.9605 12.8534 19.48 12 19.48C11.1466 19.48 10.2903 18.9605 9.55709 18.15C8.82091 17.3395 8.25 16.2648 7.99459 15.4425L7.84135 14.9527L7.32452 14.9111C6.92188 14.8784 6.61538 14.5667 6.61538 14.16C6.61538 13.875 6.76863 13.6405 7.00601 13.5069L7.39964 13.2813L7.38462 12.64V12.6311C7.38462 11.6455 7.46875 10.7519 7.58894 10.1373ZM5.97837 12.64H6.61839L5.97236 12.6548L5.97837 12.64ZM9.69231 13.4C9.26863 13.4 8.92308 13.7414 8.92308 14.16C8.92308 14.5786 9.26863 14.92 9.69231 14.92C10.116 14.92 10.4615 14.5786 10.4615 14.16C10.4615 13.7414 10.116 13.4 9.69231 13.4ZM14.3077 13.4C13.884 13.4 13.5385 13.7414 13.5385 14.16C13.5385 14.5786 13.884 14.92 14.3077 14.92C14.7314 14.92 15.0769 14.5786 15.0769 14.16C15.0769 13.7414 14.7314 13.4 14.3077 13.4Z" fill="white"/>
</svg>
